<?xml version="1.0" encoding="utf-8"?>
<!-- Generator: Adobe Illustrator 23.0.1, SVG Export Plug-In . SVG Version: 6.00 Build 0)  -->
<svg version="1.1" id="Layer_1" xmlns="http://www.w3.org/2000/svg" xmlns:xlink="http://www.w3.org/1999/xlink" x="0px" y="0px"
	 viewBox="0 0 48 48" style="enable-background:new 0 0 48 48;" xml:space="preserve">
<style type="text/css">
	.st0{fill:#FFFFFF;}
	.st1{opacity:0.2;fill:#009C85;}
	.st2{fill:#3B3631;}
</style>
<circle class="st0" cx="24" cy="24" r="24"/>
<path class="st1" d="M15.5,9.73v4.95c0,0.22-0.18,0.4-0.4,0.4H8.18c-0.22,0-0.4-0.18-0.4-0.4V9.73c0-0.22,0.18-0.4,0.4-0.4h6.92
	C15.32,9.32,15.5,9.5,15.5,9.73z"/>
<path class="st1" d="M15.5,17.82v4.95c0,0.22-0.18,0.4-0.4,0.4H8.18c-0.22,0-0.4-0.18-0.4-0.4v-4.95c0-0.22,0.18-0.4,0.4-0.4h6.92
	C15.32,17.41,15.5,17.59,15.5,17.82z"/>
<path class="st1" d="M15.5,26.09v4.95c0,0.22-0.18,0.4-0.4,0.4H8.18c-0.22,0-0.4-0.18-0.4-0.4v-4.95c0-0.22,0.18-0.4,0.4-0.4h6.92
	C15.32,25.69,15.5,25.87,15.5,26.09z"/>
<path class="st1" d="M15.5,34.18v4.95c0,0.22-0.18,0.4-0.4,0.4H8.18c-0.22,0-0.4-0.18-0.4-0.4v-4.95c0-0.22,0.18-0.4,0.4-0.4h6.92
	C15.32,33.78,15.5,33.96,15.5,34.18z"/>
<path class="st2" d="M22.84,11.78h-5.3c-0.24,0-0.44-0.2-0.44-0.44c0-0.24,0.2-0.44,0.44-0.44h5.3c0.24,0,0.44,0.2,0.44,0.44
	C23.28,11.58,23.08,11.78,22.84,11.78z"/>
<path class="st2" d="M22.84,19.87h-5.3c-0.24,0-0.44-0.2-0.44-0.44s0.2-0.44,0.44-0.44h5.3c0.24,0,0.44,0.2,0.44,0.44
	S23.08,19.87,22.84,19.87z"/>
<path class="st2" d="M22.84,28.15h-5.3c-0.24,0-0.44-0.2-0.44-0.44s0.2-0.44,0.44-0.44h5.3c0.24,0,0.44,0.2,0.44,0.44
	S23.08,28.15,22.84,28.15z"/>
<path class="st2" d="M22.84,36.43h-5.3c-0.24,0-0.44-0.2-0.44-0.44c0-0.24,0.2-0.44,0.44-0.44h5.3c0.24,0,0.44,0.2,0.44,0.44
	C23.28,36.23,23.08,36.43,22.84,36.43z"/>
<path class="st1" d="M32.88,9.73v4.95c0,0.22-0.18,0.4-0.4,0.4h-6.92c-0.22,0-0.4-0.18-0.4-0.4V9.73c0-0.22,0.18-0.4,0.4-0.4h6.92
	C32.7,9.32,32.88,9.5,32.88,9.73z"/>
<path class="st1" d="M32.88,17.82v4.95c0,0.22-0.18,0.4-0.4,0.4h-6.92c-0.22,0-0.4-0.18-0.4-0.4v-4.95c0-0.22,0.18-0.4,0.4-0.4h6.92
	C32.7,17.41,32.88,17.59,32.88,17.82z"/>
<path class="st1" d="M32.88,26.09v4.95c0,0.22-0.18,0.4-0.4,0.4h-6.92c-0.22,0-0.4-0.18-0.4-0.4v-4.95c0-0.22,0.18-0.4,0.4-0.4h6.92
	C32.7,25.69,32.88,25.87,32.88,26.09z"/>
<path class="st1" d="M32.88,34.18v4.95c0,0.22-0.18,0.4-0.4,0.4h-6.92c-0.22,0-0.4-0.18-0.4-0.4v-4.95c0-0.22,0.18-0.4,0.4-0.4h6.92
	C32.7,33.78,32.88,33.96,32.88,34.18z"/>
<path class="st2" d="M40.22,11.78h-5.3c-0.24,0-0.44-0.2-0.44-0.44c0-0.24,0.2-0.44,0.44-0.44h5.3c0.24,0,0.44,0.2,0.44,0.44
	C40.67,11.58,40.47,11.78,40.22,11.78z"/>
<path class="st2" d="M40.22,19.87h-5.3c-0.24,0-0.44-0.2-0.44-0.44s0.2-0.44,0.44-0.44h5.3c0.24,0,0.44,0.2,0.44,0.44
	S40.47,19.87,40.22,19.87z"/>
<path class="st2" d="M40.22,28.15h-5.3c-0.24,0-0.44-0.2-0.44-0.44s0.2-0.44,0.44-0.44h5.3c0.24,0,0.44,0.2,0.44,0.44
	S40.47,28.15,40.22,28.15z"/>
<path class="st2" d="M40.22,36.43h-5.3c-0.24,0-0.44-0.2-0.44-0.44c0-0.24,0.2-0.44,0.44-0.44h5.3c0.24,0,0.44,0.2,0.44,0.44
	C40.67,36.23,40.47,36.43,40.22,36.43z"/>
<path class="st2" d="M15.98,22.75H9.06c-0.47,0-0.84-0.38-0.84-0.84v-4.95c0-0.47,0.38-0.84,0.84-0.84h6.92
	c0.47,0,0.84,0.38,0.84,0.84v4.95C16.83,22.37,16.45,22.75,15.98,22.75z M9.1,21.87h6.84v-4.87H9.1V21.87z"/>
<path class="st2" d="M15.98,14.66H9.06c-0.47,0-0.84-0.38-0.84-0.84V8.86c0-0.47,0.38-0.84,0.84-0.84h6.92
	c0.47,0,0.84,0.38,0.84,0.84v4.95C16.83,14.28,16.45,14.66,15.98,14.66z M9.1,13.77h6.84V8.9H9.1V13.77z"/>
<path class="st2" d="M15.98,31.03H9.06c-0.47,0-0.84-0.38-0.84-0.84v-4.95c0-0.47,0.38-0.84,0.84-0.84h6.92
	c0.47,0,0.84,0.38,0.84,0.84v4.95C16.83,30.65,16.45,31.03,15.98,31.03z M9.1,30.14h6.84v-4.87H9.1V30.14z"/>
<path class="st2" d="M15.98,39.12H9.06c-0.47,0-0.84-0.38-0.84-0.84v-4.95c0-0.47,0.38-0.84,0.84-0.84h6.92
	c0.47,0,0.84,0.38,0.84,0.84v4.95C16.83,38.74,16.45,39.12,15.98,39.12z M9.1,38.23h6.84v-4.87H9.1V38.23z"/>
<path class="st2" d="M33.37,39.12h-6.92c-0.47,0-0.84-0.38-0.84-0.84v-4.95c0-0.47,0.38-0.84,0.84-0.84h6.92
	c0.47,0,0.84,0.38,0.84,0.84v4.95C34.21,38.74,33.83,39.12,33.37,39.12z M26.49,38.23h6.84v-4.87h-6.84V38.23z"/>
<path class="st2" d="M33.37,31.03h-6.92c-0.47,0-0.84-0.38-0.84-0.84v-4.95c0-0.47,0.38-0.84,0.84-0.84h6.92
	c0.47,0,0.84,0.38,0.84,0.84v4.95C34.21,30.65,33.83,31.03,33.37,31.03z M26.49,30.14h6.84v-4.87h-6.84V30.14z"/>
<path class="st2" d="M33.37,22.75h-6.92c-0.47,0-0.84-0.38-0.84-0.84v-4.95c0-0.47,0.38-0.84,0.84-0.84h6.92
	c0.47,0,0.84,0.38,0.84,0.84v4.95C34.21,22.37,33.83,22.75,33.37,22.75z M26.49,21.87h6.84v-4.87h-6.84V21.87z"/>
<path class="st2" d="M33.37,14.66h-6.92c-0.47,0-0.84-0.38-0.84-0.84V8.86c0-0.47,0.38-0.84,0.84-0.84h6.92
	c0.47,0,0.84,0.38,0.84,0.84v4.95C34.21,14.28,33.83,14.66,33.37,14.66z M26.49,13.77h6.84V8.9h-6.84V13.77z"/>
</svg>
