<?xml version="1.0" encoding="utf-8"?>
<!-- Generator: Adobe Illustrator 23.0.1, SVG Export Plug-In . SVG Version: 6.00 Build 0)  -->
<svg version="1.1" id="Layer_1" xmlns="http://www.w3.org/2000/svg" xmlns:xlink="http://www.w3.org/1999/xlink" x="0px" y="0px"
	 viewBox="0 0 48 48" style="enable-background:new 0 0 48 48;" xml:space="preserve">
<style type="text/css">
	.st0{fill:#FFFFFF;}
	.st1{opacity:0.2;fill:#009C85;}
	.st2{fill:#3B3631;}
</style>
<circle class="st0" cx="24" cy="24" r="24"/>
<path class="st1" d="M37.82,14.94h-5.3c-0.24,0-0.44-0.2-0.44-0.44s0.2-0.44,0.44-0.44h5.3c0.24,0,0.44,0.2,0.44,0.44
	S38.06,14.94,37.82,14.94z"/>
<path class="st1" d="M28.71,14.94H10.18c-0.24,0-0.44-0.2-0.44-0.44s0.2-0.44,0.44-0.44h18.52c0.24,0,0.44,0.2,0.44,0.44
	S28.95,14.94,28.71,14.94z"/>
<path class="st1" d="M37.82,19.69h-5.3c-0.24,0-0.44-0.2-0.44-0.44c0-0.24,0.2-0.44,0.44-0.44h5.3c0.24,0,0.44,0.2,0.44,0.44
	C38.26,19.49,38.06,19.69,37.82,19.69z"/>
<path class="st1" d="M28.71,19.69H10.18c-0.24,0-0.44-0.2-0.44-0.44c0-0.24,0.2-0.44,0.44-0.44h18.52c0.24,0,0.44,0.2,0.44,0.44
	C29.15,19.49,28.95,19.69,28.71,19.69z"/>
<path class="st1" d="M37.82,24.44h-5.3c-0.24,0-0.44-0.2-0.44-0.44c0-0.24,0.2-0.44,0.44-0.44h5.3c0.24,0,0.44,0.2,0.44,0.44
	C38.26,24.24,38.06,24.44,37.82,24.44z"/>
<path class="st1" d="M28.71,24.44H10.18c-0.24,0-0.44-0.2-0.44-0.44c0-0.24,0.2-0.44,0.44-0.44h18.52c0.24,0,0.44,0.2,0.44,0.44
	C29.15,24.24,28.95,24.44,28.71,24.44z"/>
<path class="st1" d="M37.82,29.19h-5.3c-0.24,0-0.44-0.2-0.44-0.44c0-0.24,0.2-0.44,0.44-0.44h5.3c0.24,0,0.44,0.2,0.44,0.44
	C38.26,29,38.06,29.19,37.82,29.19z"/>
<path class="st1" d="M28.71,29.19H10.18c-0.24,0-0.44-0.2-0.44-0.44c0-0.24,0.2-0.44,0.44-0.44h18.52c0.24,0,0.44,0.2,0.44,0.44
	C29.15,29,28.95,29.19,28.71,29.19z"/>
<path class="st1" d="M37.82,33.95h-5.3c-0.24,0-0.44-0.2-0.44-0.44c0-0.24,0.2-0.44,0.44-0.44h5.3c0.24,0,0.44,0.2,0.44,0.44
	C38.26,33.75,38.06,33.95,37.82,33.95z"/>
<path class="st1" d="M28.71,33.95H10.18c-0.24,0-0.44-0.2-0.44-0.44c0-0.24,0.2-0.44,0.44-0.44h18.52c0.24,0,0.44,0.2,0.44,0.44
	C29.15,33.75,28.95,33.95,28.71,33.95z"/>
<g>
	<path class="st2" d="M38.26,14.5h-5.3c-0.24,0-0.44-0.2-0.44-0.44c0-0.24,0.2-0.44,0.44-0.44h5.3c0.24,0,0.44,0.2,0.44,0.44
		C38.7,14.3,38.51,14.5,38.26,14.5z"/>
	<path class="st2" d="M29.15,14.5H10.62c-0.24,0-0.44-0.2-0.44-0.44c0-0.24,0.2-0.44,0.44-0.44h18.52c0.24,0,0.44,0.2,0.44,0.44
		C29.59,14.3,29.39,14.5,29.15,14.5z"/>
	<path class="st2" d="M38.26,19.25h-5.3c-0.24,0-0.44-0.2-0.44-0.44c0-0.24,0.2-0.44,0.44-0.44h5.3c0.24,0,0.44,0.2,0.44,0.44
		C38.7,19.05,38.51,19.25,38.26,19.25z"/>
	<path class="st2" d="M29.15,19.25H10.62c-0.24,0-0.44-0.2-0.44-0.44c0-0.24,0.2-0.44,0.44-0.44h18.52c0.24,0,0.44,0.2,0.44,0.44
		C29.59,19.05,29.39,19.25,29.15,19.25z"/>
	<path class="st2" d="M38.26,24h-5.3c-0.24,0-0.44-0.2-0.44-0.44s0.2-0.44,0.44-0.44h5.3c0.24,0,0.44,0.2,0.44,0.44
		S38.51,24,38.26,24z"/>
	<path class="st2" d="M29.15,24H10.62c-0.24,0-0.44-0.2-0.44-0.44s0.2-0.44,0.44-0.44h18.52c0.24,0,0.44,0.2,0.44,0.44
		S29.39,24,29.15,24z"/>
	<path class="st2" d="M38.26,28.75h-5.3c-0.24,0-0.44-0.2-0.44-0.44s0.2-0.44,0.44-0.44h5.3c0.24,0,0.44,0.2,0.44,0.44
		S38.51,28.75,38.26,28.75z"/>
	<path class="st2" d="M29.15,28.75H10.62c-0.24,0-0.44-0.2-0.44-0.44s0.2-0.44,0.44-0.44h18.52c0.24,0,0.44,0.2,0.44,0.44
		S29.39,28.75,29.15,28.75z"/>
	<path class="st2" d="M38.26,33.5h-5.3c-0.24,0-0.44-0.2-0.44-0.44c0-0.24,0.2-0.44,0.44-0.44h5.3c0.24,0,0.44,0.2,0.44,0.44
		C38.7,33.31,38.51,33.5,38.26,33.5z"/>
	<path class="st2" d="M29.15,33.5H10.62c-0.24,0-0.44-0.2-0.44-0.44c0-0.24,0.2-0.44,0.44-0.44h18.52c0.24,0,0.44,0.2,0.44,0.44
		C29.59,33.31,29.39,33.5,29.15,33.5z"/>
</g>
</svg>
