<?xml version="1.0" encoding="utf-8"?>
<!-- Generator: Adobe Illustrator 23.0.1, SVG Export Plug-In . SVG Version: 6.00 Build 0)  -->
<svg version="1.1" id="Layer_1" xmlns="http://www.w3.org/2000/svg" xmlns:xlink="http://www.w3.org/1999/xlink" x="0px" y="0px"
	 viewBox="0 0 48 48" style="enable-background:new 0 0 48 48;" xml:space="preserve">
<style type="text/css">
	.st0{fill:#FFFFFF;}
	.st1{opacity:0.2;fill:#009C85;}
	.st2{fill:#3B3631;}
</style>
<circle class="st0" cx="24" cy="24" r="24"/>
<path class="st1" d="M16.54,11.93v6.07c0,0.27-0.22,0.49-0.49,0.49H7.58c-0.27,0-0.49-0.22-0.49-0.49v-6.07
	c0-0.27,0.22-0.49,0.49-0.49h8.47C16.32,11.43,16.54,11.65,16.54,11.93z"/>
<path class="st1" d="M28.3,11.93v6.07c0,0.27-0.22,0.49-0.49,0.49h-8.47c-0.27,0-0.49-0.22-0.49-0.49v-6.07
	c0-0.27,0.22-0.49,0.49-0.49h8.47C28.08,11.43,28.3,11.65,28.3,11.93z"/>
<path class="st1" d="M40.07,11.93v6.07c0,0.27-0.22,0.49-0.49,0.49H31.1c-0.27,0-0.49-0.22-0.49-0.49v-6.07
	c0-0.27,0.22-0.49,0.49-0.49h8.47C39.85,11.43,40.07,11.65,40.07,11.93z"/>
<path class="st1" d="M16.54,21.28v6.07c0,0.27-0.22,0.49-0.49,0.49H7.58c-0.27,0-0.49-0.22-0.49-0.49v-6.07
	c0-0.27,0.22-0.49,0.49-0.49h8.47C16.32,20.78,16.54,21,16.54,21.28z"/>
<path class="st1" d="M28.3,21.28v6.07c0,0.27-0.22,0.49-0.49,0.49h-8.47c-0.27,0-0.49-0.22-0.49-0.49v-6.07
	c0-0.27,0.22-0.49,0.49-0.49h8.47C28.08,20.78,28.3,21,28.3,21.28z"/>
<path class="st1" d="M40.07,21.28v6.07c0,0.27-0.22,0.49-0.49,0.49H31.1c-0.27,0-0.49-0.22-0.49-0.49v-6.07
	c0-0.27,0.22-0.49,0.49-0.49h8.47C39.85,20.78,40.07,21,40.07,21.28z"/>
<path class="st1" d="M16.54,31.07v6.07c0,0.27-0.22,0.49-0.49,0.49H7.58c-0.27,0-0.49-0.22-0.49-0.49v-6.07
	c0-0.27,0.22-0.49,0.49-0.49h8.47C16.32,30.58,16.54,30.8,16.54,31.07z"/>
<path class="st1" d="M28.3,31.07v6.07c0,0.27-0.22,0.49-0.49,0.49h-8.47c-0.27,0-0.49-0.22-0.49-0.49v-6.07
	c0-0.27,0.22-0.49,0.49-0.49h8.47C28.08,30.58,28.3,30.8,28.3,31.07z"/>
<path class="st1" d="M40.07,31.07v6.07c0,0.27-0.22,0.49-0.49,0.49H31.1c-0.27,0-0.49-0.22-0.49-0.49v-6.07
	c0-0.27,0.22-0.49,0.49-0.49h8.47C39.85,30.58,40.07,30.8,40.07,31.07z"/>
<path class="st2" d="M16.9,17.87H8.43c-0.52,0-0.93-0.42-0.93-0.93v-6.07c0-0.52,0.42-0.93,0.93-0.93h8.47
	c0.52,0,0.93,0.42,0.93,0.93v6.07C17.83,17.45,17.41,17.87,16.9,17.87z M8.43,10.82c-0.03,0-0.05,0.02-0.05,0.05v6.07
	c0,0.03,0.02,0.05,0.05,0.05h8.47c0.03,0,0.05-0.02,0.05-0.05v-6.07c0-0.03-0.02-0.05-0.05-0.05H8.43z"/>
<path class="st2" d="M28.66,17.87h-8.47c-0.52,0-0.93-0.42-0.93-0.93v-6.07c0-0.52,0.42-0.93,0.93-0.93h8.47
	c0.52,0,0.93,0.42,0.93,0.93v6.07C29.59,17.45,29.17,17.87,28.66,17.87z M20.19,10.82c-0.03,0-0.05,0.02-0.05,0.05v6.07
	c0,0.03,0.02,0.05,0.05,0.05h8.47c0.03,0,0.05-0.02,0.05-0.05v-6.07c0-0.03-0.02-0.05-0.05-0.05H20.19z"/>
<path class="st2" d="M40.42,17.87h-8.47c-0.52,0-0.93-0.42-0.93-0.93v-6.07c0-0.52,0.42-0.93,0.93-0.93h8.47
	c0.52,0,0.93,0.42,0.93,0.93v6.07C41.36,17.45,40.94,17.87,40.42,17.87z M31.95,10.82c-0.03,0-0.05,0.02-0.05,0.05v6.07
	c0,0.03,0.02,0.05,0.05,0.05h8.47c0.03,0,0.05-0.02,0.05-0.05v-6.07c0-0.03-0.02-0.05-0.05-0.05H31.95z"/>
<path class="st2" d="M16.9,37.01H8.43c-0.52,0-0.93-0.42-0.93-0.93v-6.07c0-0.52,0.42-0.93,0.93-0.93h8.47
	c0.52,0,0.93,0.42,0.93,0.93v6.07C17.83,36.59,17.41,37.01,16.9,37.01z M8.43,29.96c-0.03,0-0.05,0.02-0.05,0.05v6.07
	c0,0.03,0.02,0.05,0.05,0.05h8.47c0.03,0,0.05-0.02,0.05-0.05v-6.07c0-0.03-0.02-0.05-0.05-0.05H8.43z"/>
<path class="st2" d="M28.66,37.01h-8.47c-0.52,0-0.93-0.42-0.93-0.93v-6.07c0-0.52,0.42-0.93,0.93-0.93h8.47
	c0.52,0,0.93,0.42,0.93,0.93v6.07C29.59,36.59,29.17,37.01,28.66,37.01z M20.19,29.96c-0.03,0-0.05,0.02-0.05,0.05v6.07
	c0,0.03,0.02,0.05,0.05,0.05h8.47c0.03,0,0.05-0.02,0.05-0.05v-6.07c0-0.03-0.02-0.05-0.05-0.05H20.19z"/>
<path class="st2" d="M40.42,37.01h-8.47c-0.52,0-0.93-0.42-0.93-0.93v-6.07c0-0.52,0.42-0.93,0.93-0.93h8.47
	c0.52,0,0.93,0.42,0.93,0.93v6.07C41.36,36.59,40.94,37.01,40.42,37.01z M31.95,29.96c-0.03,0-0.05,0.02-0.05,0.05v6.07
	c0,0.03,0.02,0.05,0.05,0.05h8.47c0.03,0,0.05-0.02,0.05-0.05v-6.07c0-0.03-0.02-0.05-0.05-0.05H31.95z"/>
<path class="st2" d="M16.9,27.22H8.43c-0.52,0-0.93-0.42-0.93-0.93v-6.07c0-0.52,0.42-0.93,0.93-0.93h8.47
	c0.52,0,0.93,0.42,0.93,0.93v6.07C17.83,26.8,17.41,27.22,16.9,27.22z M8.43,20.17c-0.03,0-0.05,0.02-0.05,0.05v6.07
	c0,0.03,0.02,0.05,0.05,0.05h8.47c0.03,0,0.05-0.02,0.05-0.05v-6.07c0-0.03-0.02-0.05-0.05-0.05H8.43z"/>
<path class="st2" d="M28.66,27.22h-8.47c-0.52,0-0.93-0.42-0.93-0.93v-6.07c0-0.52,0.42-0.93,0.93-0.93h8.47
	c0.52,0,0.93,0.42,0.93,0.93v6.07C29.59,26.8,29.17,27.22,28.66,27.22z M20.19,20.17c-0.03,0-0.05,0.02-0.05,0.05v6.07
	c0,0.03,0.02,0.05,0.05,0.05h8.47c0.03,0,0.05-0.02,0.05-0.05v-6.07c0-0.03-0.02-0.05-0.05-0.05H20.19z"/>
<path class="st2" d="M40.42,27.22h-8.47c-0.52,0-0.93-0.42-0.93-0.93v-6.07c0-0.52,0.42-0.93,0.93-0.93h8.47
	c0.52,0,0.93,0.42,0.93,0.93v6.07C41.36,26.8,40.94,27.22,40.42,27.22z M31.95,20.17c-0.03,0-0.05,0.02-0.05,0.05v6.07
	c0,0.03,0.02,0.05,0.05,0.05h8.47c0.03,0,0.05-0.02,0.05-0.05v-6.07c0-0.03-0.02-0.05-0.05-0.05H31.95z"/>
</svg>
