<?xml version="1.0" encoding="utf-8"?>
<!-- Generator: Adobe Illustrator 23.0.1, SVG Export Plug-In . SVG Version: 6.00 Build 0)  -->
<svg version="1.1" id="Layer_1" xmlns="http://www.w3.org/2000/svg" xmlns:xlink="http://www.w3.org/1999/xlink" x="0px" y="0px"
	 viewBox="0 0 48 48" style="enable-background:new 0 0 48 48;" xml:space="preserve">
<style type="text/css">
	.st0{fill:#FFFFFF;}
	.st1{opacity:0.2;fill:#009C85;}
	.st2{fill:#3B3631;}
</style>
<circle class="st0" cx="24" cy="24" r="24"/>
<path class="st1" d="M36.41,24.29v10.14c0,0.45-0.37,0.82-0.82,0.82H21.42c-0.45,0-0.82-0.37-0.82-0.82V24.29
	c0-0.45,0.37-0.82,0.82-0.82h14.17C36.04,23.46,36.41,23.83,36.41,24.29z"/>
<path class="st1" d="M24.49,16.62v5.95h-1.75c-0.22,0-0.39,0.18-0.39,0.39v4.62H9.5c-0.46,0-0.82-0.36-0.82-0.82V16.62
	c0-0.46,0.36-0.82,0.82-0.82h14.17C24.13,15.8,24.49,16.16,24.49,16.62z"/>
<path class="st2" d="M24.99,14.03H10.82c-0.7,0-1.27,0.57-1.27,1.27v10.14c0,0.7,0.57,1.27,1.27,1.27h11.53v-0.89H10.82
	c-0.22,0-0.38-0.18-0.38-0.38V15.3c0-0.22,0.16-0.39,0.38-0.39h14.17c0.2,0,0.38,0.18,0.38,0.39v7.27h0.89V15.3
	C26.26,14.6,25.69,14.03,24.99,14.03z"/>
<path class="st2" d="M36.9,21.7H22.74c-0.7,0-1.27,0.57-1.27,1.27v10.14c0,0.69,0.57,1.27,1.27,1.27H36.9c0.7,0,1.27-0.58,1.27-1.27
	V22.96C38.16,22.26,37.6,21.7,36.9,21.7z M37.29,33.11c0,0.2-0.17,0.38-0.39,0.38H22.74c-0.22,0-0.39-0.18-0.39-0.38V22.96
	c0-0.22,0.17-0.39,0.39-0.39H36.9c0.22,0,0.39,0.18,0.39,0.39V33.11z"/>
<g>
	<path class="st2" d="M30.17,31.15c-0.24,0-0.44-0.2-0.44-0.44v-5.35c0-0.24,0.2-0.44,0.44-0.44s0.44,0.2,0.44,0.44v5.35
		C30.62,30.95,30.42,31.15,30.17,31.15z"/>
	<path class="st2" d="M32.85,28.47H27.5c-0.24,0-0.44-0.2-0.44-0.44c0-0.24,0.2-0.44,0.44-0.44h5.35c0.24,0,0.44,0.2,0.44,0.44
		C33.29,28.28,33.09,28.47,32.85,28.47z"/>
</g>
</svg>
