<?xml version="1.0" encoding="utf-8"?>
<!-- Generator: Adobe Illustrator 23.0.1, SVG Export Plug-In . SVG Version: 6.00 Build 0)  -->
<svg version="1.1" id="Layer_1" xmlns="http://www.w3.org/2000/svg" xmlns:xlink="http://www.w3.org/1999/xlink" x="0px" y="0px"
	 viewBox="0 0 48 48" style="enable-background:new 0 0 48 48;" xml:space="preserve">
<style type="text/css">
	.st0{fill:#FFFFFF;}
	.st1{opacity:0.2;fill:#009C85;enable-background:new    ;}
	.st2{fill:#3B3631;}
</style>
<circle class="st0" cx="24" cy="24" r="24"/>
<path class="st1" d="M20.43,13.68v8.4c0,0.39-0.3,0.69-0.69,0.69H8.01c-0.39,0-0.69-0.3-0.69-0.69v-8.4c0-0.39,0.3-0.69,0.69-0.69
	h11.73C20.13,12.99,20.43,13.29,20.43,13.68z"/>
<path class="st1" d="M39.48,13.68v8.4c0,0.39-0.3,0.69-0.69,0.69H27.06c-0.39,0-0.69-0.3-0.69-0.69v-8.4c0-0.39,0.3-0.69,0.69-0.69
	h11.73C39.18,12.99,39.48,13.29,39.48,13.68z"/>
<path class="st1" d="M20.43,27.39v8.4c0,0.39-0.3,0.69-0.69,0.69H8.01c-0.39,0-0.69-0.3-0.69-0.69v-8.4c0-0.39,0.3-0.69,0.69-0.69
	h11.73C20.13,26.7,20.43,27.03,20.43,27.39z"/>
<path class="st1" d="M39.48,27.39v8.4c0,0.39-0.3,0.69-0.69,0.69H27.06c-0.39,0-0.69-0.3-0.69-0.69v-8.4c0-0.39,0.3-0.69,0.69-0.69
	h11.73C39.18,26.7,39.48,27.03,39.48,27.39z"/>
<path class="st2" d="M20.94,21.72H9.18c-0.63,0-1.11-0.51-1.11-1.11v-8.4c0-0.63,0.51-1.11,1.11-1.11h11.73
	c0.63,0,1.11,0.51,1.11,1.11v8.4C22.05,21.24,21.54,21.72,20.94,21.72z M9.18,11.97c-0.12,0-0.24,0.12-0.24,0.24v8.4
	c0,0.12,0.12,0.24,0.24,0.24h11.73c0.12,0,0.24-0.12,0.24-0.24v-8.4c0-0.12-0.12-0.24-0.24-0.24C20.91,11.97,9.18,11.97,9.18,11.97z
	"/>
<path class="st2" d="M39.99,21.72H28.26c-0.63,0-1.11-0.51-1.11-1.11v-8.4c0-0.63,0.51-1.11,1.11-1.11h11.73
	c0.63,0,1.11,0.51,1.11,1.11v8.4C41.1,21.24,40.59,21.72,39.99,21.72z M28.26,11.97c-0.12,0-0.24,0.12-0.24,0.24v8.4
	c0,0.12,0.12,0.24,0.24,0.24h11.73c0.12,0,0.24-0.12,0.24-0.24v-8.4c0-0.12-0.12-0.24-0.24-0.24
	C39.99,11.97,28.26,11.97,28.26,11.97z"/>
<path class="st2" d="M20.94,35.46H9.18c-0.63,0-1.11-0.51-1.11-1.11v-8.4c0-0.63,0.51-1.11,1.11-1.11h11.73
	c0.63,0,1.11,0.51,1.11,1.11v8.4C22.05,34.95,21.54,35.46,20.94,35.46z M9.18,25.68c-0.12,0-0.24,0.12-0.24,0.24v8.4
	c0,0.12,0.12,0.24,0.24,0.24h11.73c0.12,0,0.24-0.12,0.24-0.24v-8.4c0-0.12-0.12-0.24-0.24-0.24H9.18z"/>
<path class="st2" d="M39.99,35.46H28.26c-0.63,0-1.11-0.51-1.11-1.11v-8.4c0-0.63,0.51-1.11,1.11-1.11h11.73
	c0.63,0,1.11,0.51,1.11,1.11v8.4C41.1,34.95,40.59,35.46,39.99,35.46z M28.26,25.68c-0.12,0-0.24,0.12-0.24,0.24v8.4
	c0,0.12,0.12,0.24,0.24,0.24h11.73c0.12,0,0.24-0.12,0.24-0.24v-8.4c0-0.12-0.12-0.24-0.24-0.24H28.26z"/>
</svg>
