<?xml version="1.0" encoding="utf-8"?>
<!-- Generator: Adobe Illustrator 23.0.1, SVG Export Plug-In . SVG Version: 6.00 Build 0)  -->
<svg version="1.1" id="Layer_1" xmlns="http://www.w3.org/2000/svg" xmlns:xlink="http://www.w3.org/1999/xlink" x="0px" y="0px"
	 viewBox="0 0 48 48" style="enable-background:new 0 0 48 48;" xml:space="preserve">
<style type="text/css">
	.st0{fill:#FFFFFF;}
	.st1{opacity:0.05;fill:#FFFFFF;}
	.st2{fill:#019983;}
</style>
<circle class="st0" cx="24" cy="24" r="24"/>
<circle class="st1" cx="24" cy="24" r="24"/>
<circle class="st2" cx="24" cy="33.17" r="3.98"/>
<path class="st2" d="M16.46,27.68c-0.36,0-0.71-0.14-0.98-0.41c-0.54-0.54-0.54-1.42,0-1.96c2.28-2.28,5.3-3.53,8.52-3.53
	s6.25,1.25,8.52,3.53c0.54,0.54,0.54,1.42,0,1.96c-0.54,0.54-1.42,0.54-1.96,0c-1.75-1.75-4.08-2.72-6.56-2.72
	c-2.48,0-4.81,0.96-6.56,2.72C17.17,27.54,16.81,27.68,16.46,27.68z"/>
<path class="st2" d="M35.28,23.1c-0.36,0-0.71-0.14-0.98-0.41c-2.75-2.75-6.41-4.26-10.29-4.26c-3.89,0-7.54,1.51-10.29,4.26
	c-0.54,0.54-1.42,0.54-1.96,0c-0.54-0.54-0.54-1.42,0-1.96c3.27-3.27,7.63-5.08,12.26-5.08c4.63,0,8.98,1.8,12.26,5.08
	c0.54,0.54,0.54,1.42,0,1.96C35.99,22.96,35.63,23.1,35.28,23.1z"/>
<path class="st2" d="M39.65,18.73c-0.36,0-0.71-0.14-0.98-0.41c-3.92-3.92-9.12-6.07-14.66-6.07S13.25,14.4,9.34,18.32
	c-0.54,0.54-1.42,0.54-1.96,0c-0.54-0.54-0.54-1.42,0-1.96C11.81,11.91,17.72,9.47,24,9.47s12.19,2.45,16.63,6.89
	c0.54,0.54,0.54,1.42,0,1.96C40.36,18.59,40,18.73,39.65,18.73z"/>
</svg>
