<?xml version="1.0" encoding="utf-8"?>
<!-- Generator: Adobe Illustrator 23.0.1, SVG Export Plug-In . SVG Version: 6.00 Build 0)  -->
<svg version="1.1" id="Layer_1" xmlns="http://www.w3.org/2000/svg" xmlns:xlink="http://www.w3.org/1999/xlink" x="0px" y="0px"
	 viewBox="0 0 48.02 48.02" style="enable-background:new 0 0 48.02 48.02;" xml:space="preserve">
<style type="text/css">
	.st0{fill:#F2FAF9;}
	.st1{fill:#009B85;}
	.st2{opacity:0.2;}
	.st3{fill:none;}
</style>
<g>
	<path class="st0" d="M24.01,6.51c-9.66,0-17.5,7.84-17.5,17.5c0,9.66,7.84,17.5,17.5,17.5c9.67,0,17.5-7.84,17.5-17.5
		C41.51,14.35,33.68,6.51,24.01,6.51"/>
	<path class="st1" d="M23.09,34.36c-0.1,0-0.18-0.03-0.23-0.05c-0.11-0.05-0.36-0.21-0.36-0.69l0.05-9.57l-3.44-3.1
		c-0.15-0.13-0.16-0.35-0.03-0.5c0.13-0.15,0.35-0.16,0.5-0.03l8.81,7.93c0.21,0.19,0.33,0.46,0.33,0.74c0,0.28-0.12,0.54-0.33,0.74
		l-4.77,4.29C23.41,34.31,23.23,34.36,23.09,34.36z M23.25,24.69l-0.04,8.84l4.7-4.23c0.06-0.06,0.1-0.13,0.1-0.21
		c0-0.08-0.04-0.15-0.1-0.21L23.25,24.69z"/>
	<path class="st1" d="M19.34,27.68c-0.1,0-0.19-0.04-0.26-0.12c-0.13-0.15-0.12-0.37,0.03-0.5l3.44-3.1l-0.05-9.57
		c0-0.47,0.25-0.64,0.36-0.69c0.11-0.05,0.4-0.13,0.75,0.19l4.77,4.29c0.22,0.19,0.33,0.46,0.33,0.74c0,0.28-0.12,0.55-0.33,0.74
		l-8.81,7.93C19.51,27.65,19.43,27.68,19.34,27.68z M23.21,14.48l0.04,8.84l4.66-4.19c0.06-0.06,0.1-0.13,0.1-0.21
		c0-0.08-0.04-0.15-0.1-0.21L23.21,14.48z"/>
	<g class="st2">
		<path class="st1" d="M22.16,23.51l-0.04-8.84l4.7,4.23c0.07,0.06,0.1,0.13,0.1,0.21c0,0.08-0.04,0.15-0.1,0.21L22.16,23.51z"/>
		<path class="st1" d="M22.16,23.68c-0.02,0-0.05-0.01-0.07-0.02c-0.06-0.03-0.11-0.09-0.11-0.16l-0.04-8.84
			c0-0.07,0.04-0.13,0.1-0.16c0.06-0.03,0.14-0.02,0.19,0.03l4.7,4.23c0.1,0.09,0.16,0.21,0.16,0.34c0,0.13-0.06,0.25-0.16,0.34
			l-4.66,4.19C22.24,23.67,22.2,23.68,22.16,23.68z M22.3,15.06l0.04,8.05l4.37-3.93c0.02-0.02,0.04-0.05,0.04-0.08
			c0-0.03-0.02-0.06-0.04-0.07L22.3,15.06z"/>
	</g>
	<g class="st2">
		<path class="st1" d="M22.16,33.71l-0.04-8.84l4.7,4.23c0.07,0.06,0.1,0.13,0.1,0.21c0,0.08-0.04,0.15-0.1,0.21L22.16,33.71z"/>
		<path class="st1" d="M22.16,33.89c-0.02,0-0.05-0.01-0.07-0.02c-0.06-0.03-0.11-0.09-0.11-0.16l-0.04-8.84
			c0-0.07,0.04-0.13,0.1-0.16c0.06-0.03,0.14-0.02,0.19,0.03l4.7,4.23c0.1,0.09,0.16,0.21,0.16,0.34c0,0.13-0.06,0.25-0.16,0.34
			l-4.66,4.19C22.24,33.87,22.2,33.89,22.16,33.89z M22.3,25.27l0.04,8.05l4.37-3.93c0.02-0.02,0.04-0.05,0.04-0.08
			c0-0.03-0.02-0.06-0.04-0.07L22.3,25.27z"/>
	</g>
</g>
<rect class="st3" width="48.02" height="48.02"/>
</svg>
