<?xml version="1.0" encoding="utf-8"?>
<!-- Generator: Adobe Illustrator 23.0.2, SVG Export Plug-In . SVG Version: 6.00 Build 0)  -->
<svg version="1.1" id="Layer_1" xmlns="http://www.w3.org/2000/svg" xmlns:xlink="http://www.w3.org/1999/xlink" x="0px" y="0px"
	 viewBox="0 0 98.9 98.9" style="enable-background:new 0 0 98.9 98.9;" xml:space="preserve">
<style type="text/css">
	.st0{fill:#F2FAF9;}
	.st1{opacity:0.1;fill:#009B85;}
	.st2{fill:none;stroke:#009B85;stroke-width:2;stroke-linecap:round;stroke-linejoin:round;stroke-miterlimit:10;}
	.st3{opacity:0.2;}
	.st4{fill:#009B85;}
	.st5{fill:none;stroke:#E26056;stroke-width:2;stroke-linecap:round;stroke-linejoin:round;stroke-miterlimit:10;}
</style>
<path class="st0" d="M49.4,0C22.1,0,0,22.1,0,49.4c0,27.3,22.1,49.4,49.4,49.4c27.3,0,49.4-22.1,49.4-49.4C98.9,22.1,76.7,0,49.4,0"
	/>
<path class="st1" d="M49.4,0C22.1,0,0,22.1,0,49.4c0,27.3,22.1,49.4,49.4,49.4c27.3,0,49.4-22.1,49.4-49.4C98.9,22.1,76.7,0,49.4,0"
	/>
<g>
	<path class="st2" d="M45.7,37.7l31.6,28.5c0.8,0.7,0.8,1.9,0,2.7L59.7,84.7c-0.8,0.7-1.5,0.4-1.5-0.7l0.2-35"/>
</g>
<g>
	<path class="st2" d="M45.7,61.2l31.6-28.5c0.8-0.7,0.8-1.9,0-2.7L59.7,14.1c-0.8-0.7-1.5-0.4-1.5,0.7l0.2,35"/>
</g>
<g class="st3">
	<path class="st4" d="M55.7,47.6l-0.1-31.4l16.7,15c0.2,0.2,0.4,0.5,0.4,0.7c0,0.3-0.1,0.5-0.4,0.8L55.7,47.6z"/>
	<path class="st4" d="M55.7,48.3c-0.1,0-0.2,0-0.3-0.1c-0.2-0.1-0.4-0.3-0.4-0.6l-0.1-31.4c0-0.2,0.1-0.5,0.4-0.6
		c0.2-0.1,0.5-0.1,0.7,0.1l16.7,15c0.4,0.3,0.6,0.7,0.6,1.2c0,0.5-0.2,0.9-0.6,1.2L56.1,48.1C56,48.2,55.9,48.3,55.7,48.3z
		 M56.2,17.7l0.1,28.6l15.5-13.9c0.1-0.1,0.2-0.2,0.2-0.3c0-0.1-0.1-0.2-0.1-0.3L56.2,17.7z"/>
</g>
<g class="st3">
	<path class="st4" d="M55.7,83.9l-0.1-31.4l16.7,15c0.2,0.2,0.4,0.5,0.4,0.7c0,0.3-0.1,0.5-0.4,0.8L55.7,83.9z"/>
	<path class="st4" d="M55.7,84.5c-0.1,0-0.2,0-0.3-0.1c-0.2-0.1-0.4-0.3-0.4-0.6l-0.1-31.4c0-0.2,0.1-0.5,0.4-0.6
		c0.2-0.1,0.5-0.1,0.7,0.1l16.7,15c0.4,0.3,0.6,0.7,0.6,1.2c0,0.5-0.2,0.9-0.6,1.2L56.1,84.3C56,84.4,55.9,84.5,55.7,84.5z
		 M56.2,53.9l0.1,28.6l15.5-13.9c0.1-0.1,0.2-0.2,0.2-0.3c0-0.1-0.1-0.2-0.1-0.3L56.2,53.9z"/>
</g>
<g>
	<line class="st5" x1="19.2" y1="57.7" x2="35.2" y2="41.7"/>
	<line class="st5" x1="19.2" y1="41.7" x2="35.2" y2="57.7"/>
</g>
</svg>
