<?xml version="1.0" encoding="utf-8"?>
<!-- Generator: Adobe Illustrator 23.0.2, SVG Export Plug-In . SVG Version: 6.00 Build 0)  -->
<svg version="1.1" id="Layer_1" xmlns="http://www.w3.org/2000/svg" xmlns:xlink="http://www.w3.org/1999/xlink" x="0px" y="0px"
	 viewBox="0 0 425.2 425.2" style="enable-background:new 0 0 425.2 425.2;" xml:space="preserve">
<style type="text/css">
	.st0{fill:#F2FAF9;}
	.st1{fill:#009B85;}
	.st2{opacity:0.2;}
	.st3{fill:none;}
	.st4{fill:#E26056;}
	.st5{fill:#FFFFFF;}
</style>
<g>
	<rect class="st3" width="425.2" height="425.2"/>
	<g>
		<path class="st0" d="M212.6,40.82c-94.87,0-171.78,76.91-171.78,171.78c0,94.87,76.91,171.78,171.78,171.78
			c94.87,0,171.78-76.91,171.78-171.78C384.38,117.73,307.47,40.82,212.6,40.82"/>
		<g class="st2">
			<path class="st1" d="M203.58,314.18c-0.99,0-1.76-0.25-2.21-0.45c-1.08-0.48-3.57-2.1-3.55-6.73l0.45-93.92l-33.8-30.42
				c-1.43-1.28-1.54-3.48-0.26-4.91c1.29-1.43,3.48-1.54,4.91-0.26l34.94,31.45c0.01,0.01,0.03,0.02,0.04,0.03l51.48,46.33
				c2.08,1.88,3.28,4.51,3.28,7.23s-1.2,5.36-3.28,7.23l-46.81,42.13C206.76,313.69,204.95,314.18,203.58,314.18z M205.19,219.3
				l-0.41,86.82l46.15-41.53c0.63-0.57,0.98-1.3,0.98-2.07c0-0.76-0.35-1.5-0.98-2.07L205.19,219.3z"/>
			<path class="st1" d="M166.79,248.61c-0.95,0-1.9-0.39-2.58-1.15c-1.28-1.43-1.17-3.62,0.26-4.91l33.8-30.42l-0.45-93.92
				c-0.02-4.63,2.48-6.25,3.55-6.73c1.08-0.48,3.95-1.27,7.39,1.83l46.81,42.13c2.11,1.9,3.28,4.47,3.28,7.23
				c0,2.72-1.19,5.36-3.28,7.24l-51.42,46.27c-0.05,0.05-0.11,0.1-0.16,0.14l-34.88,31.39
				C168.45,248.31,167.62,248.61,166.79,248.61z M204.78,119.08l0.41,86.82l45.73-41.16c0.63-0.57,0.98-1.3,0.98-2.07
				c0-0.76-0.35-1.49-0.98-2.06L204.78,119.08z"/>
			<g class="st2">
				<path class="st1" d="M194.42,207.65l-0.38-86.82l46.12,41.53c0.66,0.56,1.01,1.29,1.01,2.05c0,0.76-0.35,1.49-1.01,2.09
					L194.42,207.65z"/>
				<path class="st1" d="M194.42,209.38c-0.24,0-0.48-0.05-0.7-0.15c-0.63-0.28-1.03-0.9-1.04-1.58l-0.38-86.82
					c0-0.69,0.4-1.31,1.03-1.59c0.63-0.28,1.36-0.17,1.87,0.3l46.12,41.53c1,0.85,1.58,2.05,1.58,3.34c0,1.26-0.56,2.46-1.59,3.38
					l-45.74,41.15C195.26,209.23,194.84,209.38,194.42,209.38z M195.8,124.75l0.35,79.01L239,165.2c0.2-0.18,0.43-0.46,0.43-0.79
					c0-0.32-0.21-0.57-0.39-0.72L195.8,124.75z"/>
			</g>
			<g class="st2">
				<path class="st1" d="M194.42,307.84l-0.38-86.82l46.12,41.53c0.66,0.56,1.01,1.29,1.01,2.05c0,0.76-0.35,1.49-1.01,2.09
					L194.42,307.84z"/>
				<path class="st1" d="M194.42,309.58c-0.24,0-0.48-0.05-0.7-0.15c-0.63-0.28-1.03-0.9-1.04-1.58l-0.38-86.82
					c0-0.69,0.4-1.31,1.03-1.59c0.63-0.28,1.36-0.17,1.87,0.3l46.12,41.53c1,0.85,1.58,2.05,1.58,3.34c0,1.26-0.56,2.46-1.59,3.38
					l-45.74,41.15C195.26,309.43,194.84,309.58,194.42,309.58z M195.8,224.94l0.35,79.01L239,265.4c0.2-0.18,0.43-0.46,0.43-0.79
					c0-0.32-0.21-0.57-0.39-0.72L195.8,224.94z"/>
			</g>
		</g>
	</g>
</g>
</svg>
