<?xml version="1.0" encoding="utf-8"?>
<!-- Generator: Adobe Illustrator 23.0.2, SVG Export Plug-In . SVG Version: 6.00 Build 0)  -->
<svg version="1.1" id="Layer_1" xmlns="http://www.w3.org/2000/svg" xmlns:xlink="http://www.w3.org/1999/xlink" x="0px" y="0px"
	 viewBox="0 0 425.2 425.2" style="enable-background:new 0 0 425.2 425.2;" xml:space="preserve">
<style type="text/css">
	.st0{fill:#F2FAF9;}
	.st1{fill:#009B85;}
	.st2{opacity:0.2;}
	.st3{fill:none;}
	.st4{fill:#E26056;}
	.st5{fill:#FFFFFF;}
</style>
<g>
	<g>
		<path class="st0" d="M212.6,40.82c-94.87,0-171.78,76.91-171.78,171.78c0,94.87,76.91,171.78,171.78,171.78
			c94.87,0,171.78-76.91,171.78-171.78C384.38,117.73,307.47,40.82,212.6,40.82"/>
		<path class="st1" d="M238.8,314.18c-0.99,0-1.75-0.26-2.21-0.46c-1.07-0.48-3.57-2.1-3.55-6.73l0.44-93.92l-33.8-30.42
			c-1.43-1.28-1.54-3.48-0.26-4.91c1.28-1.42,3.48-1.55,4.91-0.26l86.45,77.81c2.12,1.9,3.29,4.47,3.29,7.24
			c0,2.76-1.17,5.33-3.29,7.23l-46.81,42.13C241.98,313.69,240.17,314.18,238.8,314.18z M240.41,219.3L240,306.12l46.14-41.52
			c0.63-0.57,0.98-1.31,0.98-2.07c0-0.76-0.35-1.5-0.98-2.07L240.41,219.3z"/>
		<path class="st1" d="M202.01,248.61c-0.95,0-1.9-0.39-2.58-1.15c-1.28-1.43-1.17-3.62,0.26-4.91l33.8-30.42l-0.44-93.92
			c-0.02-4.63,2.47-6.25,3.55-6.73c1.07-0.49,3.94-1.27,7.38,1.83l46.81,42.13c2.09,1.88,3.29,4.51,3.29,7.23
			c0,2.72-1.2,5.36-3.29,7.23l-86.45,77.81C203.67,248.32,202.84,248.61,202.01,248.61z M240,119.08l0.41,86.82l45.73-41.16
			c0.63-0.57,0.98-1.3,0.98-2.07s-0.35-1.5-0.98-2.07L240,119.08z"/>
		<g class="st2">
			<path class="st1" d="M229.64,207.65l-0.38-86.82l46.12,41.53c0.66,0.56,1.01,1.29,1.01,2.05c0,0.76-0.35,1.49-1.01,2.09
				L229.64,207.65z"/>
			<path class="st1" d="M229.64,209.38c-0.24,0-0.48-0.05-0.7-0.15c-0.63-0.28-1.03-0.9-1.04-1.58l-0.38-86.82
				c0-0.69,0.4-1.31,1.03-1.59c0.63-0.28,1.36-0.17,1.87,0.3l46.12,41.53c1,0.85,1.58,2.05,1.58,3.34c0,1.26-0.56,2.46-1.59,3.38
				l-45.74,41.15C230.48,209.23,230.06,209.38,229.64,209.38z M231.02,124.75l0.35,79.01l42.86-38.55c0.2-0.18,0.43-0.46,0.43-0.79
				c0-0.32-0.21-0.57-0.39-0.72L231.02,124.75z"/>
		</g>
		<g class="st2">
			<path class="st1" d="M229.64,307.84l-0.38-86.82l46.12,41.53c0.66,0.56,1.01,1.29,1.01,2.05c0,0.76-0.35,1.49-1.01,2.09
				L229.64,307.84z"/>
			<path class="st1" d="M229.64,309.58c-0.24,0-0.48-0.05-0.7-0.15c-0.63-0.28-1.03-0.9-1.04-1.58l-0.38-86.82
				c0-0.69,0.4-1.31,1.03-1.59c0.63-0.28,1.36-0.17,1.87,0.3l46.12,41.53c1,0.85,1.58,2.05,1.58,3.34c0,1.26-0.56,2.46-1.59,3.38
				l-45.74,41.15C230.48,309.43,230.06,309.58,229.64,309.58z M231.02,224.94l0.35,79.01l42.86-38.55c0.2-0.18,0.43-0.46,0.43-0.79
				c0-0.32-0.21-0.57-0.39-0.72L231.02,224.94z"/>
		</g>
		<g>
			<circle class="st1" cx="125.14" cy="213.33" r="6.91"/>
			<circle class="st1" cx="150.93" cy="213.33" r="6.91"/>
			<circle class="st1" cx="176.73" cy="213.33" r="6.91"/>
		</g>
	</g>
	<rect class="st3" width="425.2" height="425.2"/>
</g>
</svg>
