<?xml version="1.0" encoding="utf-8"?>
<!-- Generator: Adobe Illustrator 23.0.2, SVG Export Plug-In . SVG Version: 6.00 Build 0)  -->
<svg version="1.1" id="Layer_1" xmlns="http://www.w3.org/2000/svg" xmlns:xlink="http://www.w3.org/1999/xlink" x="0px" y="0px"
	 viewBox="0 0 48 48" style="enable-background:new 0 0 48 48;" xml:space="preserve">
<style type="text/css">
	.st0{fill:none;}
	.st1{fill:#F2FAF9;}
	.st2{fill:#009B85;}
	.st3{fill:none;stroke:#009B85;stroke-width:2;stroke-linecap:round;stroke-linejoin:round;stroke-miterlimit:10;}
	.st4{opacity:0.2;fill:#009B85;}
	.st5{opacity:0.2;}
</style>
<g>
	<rect class="st0" width="48" height="48"/>
	<g>
		<path class="st1" d="M24,4.6C13.3,4.6,4.6,13.3,4.6,24c0,10.7,8.7,19.4,19.4,19.4c10.7,0,19.4-8.7,19.4-19.4
			C43.4,13.3,34.7,4.6,24,4.6"/>
		<g>
			<path class="st2" d="M27.2,29.4h-6.5c-0.2,0-0.4-0.2-0.4-0.4v-1.2h-0.7c-0.2,0-0.4-0.2-0.4-0.4v-1.3h-0.8c-0.2,0-0.4-0.2-0.4-0.4
				v-6.4c0-0.2,0.2-0.4,0.4-0.4h11.1c0.2,0,0.4,0.2,0.4,0.4v6.4c0,0.2-0.2,0.4-0.4,0.4h-0.8v1.3c0,0.2-0.2,0.4-0.4,0.4h-0.7V29
				C27.6,29.2,27.5,29.4,27.2,29.4z M21.2,28.6h5.7v-1.2c0-0.2,0.2-0.4,0.4-0.4h0.7v-1.3c0-0.2,0.2-0.4,0.4-0.4h0.8v-5.6H18.9v5.6
				h0.8c0.2,0,0.4,0.2,0.4,0.4V27h0.7c0.2,0,0.4,0.2,0.4,0.4V28.6z"/>
			<g>
				<path class="st2" d="M20.4,22.3c-0.2,0-0.4-0.2-0.4-0.4v-2.5c0-0.2,0.2-0.4,0.4-0.4c0.2,0,0.4,0.2,0.4,0.4v2.5
					C20.8,22.1,20.6,22.3,20.4,22.3z"/>
				<path class="st2" d="M21.4,22.3c-0.2,0-0.4-0.2-0.4-0.4v-2.5c0-0.2,0.2-0.4,0.4-0.4s0.4,0.2,0.4,0.4v2.5
					C21.8,22.1,21.7,22.3,21.4,22.3z"/>
				<path class="st2" d="M22.5,22.3c-0.2,0-0.4-0.2-0.4-0.4v-2.5c0-0.2,0.2-0.4,0.4-0.4s0.4,0.2,0.4,0.4v2.5
					C22.9,22.1,22.7,22.3,22.5,22.3z"/>
				<path class="st2" d="M23.5,22.3c-0.2,0-0.4-0.2-0.4-0.4v-2.5c0-0.2,0.2-0.4,0.4-0.4c0.2,0,0.4,0.2,0.4,0.4v2.5
					C23.9,22.1,23.7,22.3,23.5,22.3z"/>
				<path class="st2" d="M24.5,22.3c-0.2,0-0.4-0.2-0.4-0.4v-2.5c0-0.2,0.2-0.4,0.4-0.4c0.2,0,0.4,0.2,0.4,0.4v2.5
					C24.9,22.1,24.7,22.3,24.5,22.3z"/>
				<path class="st2" d="M25.5,22.3c-0.2,0-0.4-0.2-0.4-0.4v-2.5c0-0.2,0.2-0.4,0.4-0.4c0.2,0,0.4,0.2,0.4,0.4v2.5
					C25.9,22.1,25.8,22.3,25.5,22.3z"/>
				<path class="st2" d="M26.6,22.3c-0.2,0-0.4-0.2-0.4-0.4v-2.5c0-0.2,0.2-0.4,0.4-0.4s0.4,0.2,0.4,0.4v2.5
					C27,22.1,26.8,22.3,26.6,22.3z"/>
				<path class="st2" d="M27.6,22.3c-0.2,0-0.4-0.2-0.4-0.4v-2.5c0-0.2,0.2-0.4,0.4-0.4s0.4,0.2,0.4,0.4v2.5
					C28,22.1,27.8,22.3,27.6,22.3z"/>
			</g>
		</g>
		<path class="st2" d="M31,32H17c-0.4,0-0.8-0.4-0.8-0.8v-14c0-0.4,0.4-0.8,0.8-0.8h14c0.4,0,0.8,0.4,0.8,0.8v14
			C31.8,31.6,31.4,32,31,32z M31,31.2v0.4V31.2L31,31.2z M17,17.2v14h14l0-14H17z"/>
		<path class="st4" d="M30.1,17.6H16.3c-0.3,0-0.5,0.2-0.5,0.5v13.8c0,0.3,0.2,0.5,0.5,0.5h13.8c0.3,0,0.5-0.2,0.5-0.5V18.1
			C30.7,17.8,30.4,17.6,30.1,17.6z M20.1,27.9h-0.8v-1.3c0-0.1-0.1-0.3-0.3-0.3h-0.9v-5.7h10.2v5.7h-0.9c-0.1,0-0.3,0.1-0.3,0.3v1.3
			h-0.8c-0.1,0-0.3,0.1-0.3,0.3v1.3h-5.7v-1.3C20.4,28,20.2,27.9,20.1,27.9z"/>
		<g>
			<path class="st2" d="M29.7,12.1H18.3c-0.2,0-0.4-0.2-0.4-0.4c0-0.2,0.2-0.4,0.4-0.4h10.2l-2.6-1.9c-0.2-0.1-0.2-0.4-0.1-0.5
				c0.1-0.2,0.4-0.2,0.5-0.1l3.6,2.6c0.1,0.1,0.2,0.3,0.1,0.4C30,12,29.9,12.1,29.7,12.1z"/>
			<path class="st2" d="M26.1,14.7c-0.1,0-0.2-0.1-0.3-0.2c-0.1-0.2-0.1-0.4,0.1-0.5l2.6-1.9H18.3c-0.2,0-0.4-0.2-0.4-0.4
				c0-0.2,0.2-0.4,0.4-0.4h11.4c0.2,0,0.3,0.1,0.4,0.3c0.1,0.2,0,0.3-0.1,0.4l-3.6,2.6C26.3,14.7,26.2,14.7,26.1,14.7z"/>
		</g>
		<g class="st5">
			<path class="st2" d="M21.9,38.9c-0.1,0-0.2,0-0.2-0.1l-3.6-2.6c-0.1-0.1-0.2-0.3-0.1-0.4s0.2-0.3,0.4-0.3h11.4
				c0.2,0,0.4,0.2,0.4,0.4s-0.2,0.4-0.4,0.4H19.5l2.6,1.9c0.2,0.1,0.2,0.4,0.1,0.5C22.2,38.9,22,38.9,21.9,38.9z"/>
			<path class="st2" d="M29.7,36.4H18.3c-0.2,0-0.3-0.1-0.4-0.3s0-0.3,0.1-0.4l3.6-2.6c0.2-0.1,0.4-0.1,0.5,0.1
				c0.1,0.2,0.1,0.4-0.1,0.5l-2.6,1.9h10.2c0.2,0,0.4,0.2,0.4,0.4C30.1,36.2,29.9,36.4,29.7,36.4z"/>
		</g>
	</g>
</g>
</svg>
