<?xml version="1.0" encoding="utf-8"?>
<!-- Generator: Adobe Illustrator 23.0.2, SVG Export Plug-In . SVG Version: 6.00 Build 0)  -->
<svg version="1.1" id="Layer_1" xmlns="http://www.w3.org/2000/svg" xmlns:xlink="http://www.w3.org/1999/xlink" x="0px" y="0px"
	 viewBox="0 0 48 48" style="enable-background:new 0 0 48 48;" xml:space="preserve">
<style type="text/css">
	.st0{fill:none;}
	.st1{fill:#F2FAF9;}
	.st2{fill:#009B85;}
	.st3{fill:none;stroke:#009B85;stroke-width:2;stroke-linecap:round;stroke-linejoin:round;stroke-miterlimit:10;}
	.st4{opacity:0.2;fill:#009B85;}
	.st5{opacity:0.2;}
</style>
<g>
	<rect class="st0" width="48" height="48"/>
	<g>
		<path class="st1" d="M24,4.6C13.3,4.6,4.6,13.3,4.6,24c0,10.7,8.7,19.4,19.4,19.4c10.7,0,19.4-8.7,19.4-19.4
			C43.4,13.3,34.7,4.6,24,4.6"/>
		<g>
			<path class="st2" d="M28.7,31.4h-9.4c-0.2,0-0.4-0.2-0.4-0.4v-1.9h-1.2c-0.2,0-0.4-0.2-0.4-0.4v-2h-1.4c-0.2,0-0.4-0.2-0.4-0.4
				v-9.4c0-0.2,0.2-0.4,0.4-0.4h16.2c0.2,0,0.4,0.2,0.4,0.4v9.4c0,0.2-0.2,0.4-0.4,0.4h-1.4v2c0,0.2-0.2,0.4-0.4,0.4h-1.2V31
				C29.1,31.2,28.9,31.4,28.7,31.4z M19.7,30.6h8.7v-1.9c0-0.2,0.2-0.4,0.4-0.4h1.2v-2c0-0.2,0.2-0.4,0.4-0.4h1.4v-8.6H16.3v8.6h1.4
				c0.2,0,0.4,0.2,0.4,0.4v2h1.2c0.2,0,0.4,0.2,0.4,0.4V30.6z"/>
			<g>
				<path class="st2" d="M18.8,21c-0.2,0-0.4-0.2-0.4-0.4v-3.7c0-0.2,0.2-0.4,0.4-0.4c0.2,0,0.4,0.2,0.4,0.4v3.7
					C19.2,20.8,19,21,18.8,21z"/>
				<path class="st2" d="M20.3,21c-0.2,0-0.4-0.2-0.4-0.4v-3.7c0-0.2,0.2-0.4,0.4-0.4s0.4,0.2,0.4,0.4v3.7
					C20.7,20.8,20.5,21,20.3,21z"/>
				<path class="st2" d="M21.8,21c-0.2,0-0.4-0.2-0.4-0.4v-3.7c0-0.2,0.2-0.4,0.4-0.4s0.4,0.2,0.4,0.4v3.7C22.2,20.8,22,21,21.8,21z
					"/>
				<path class="st2" d="M23.3,21c-0.2,0-0.4-0.2-0.4-0.4v-3.7c0-0.2,0.2-0.4,0.4-0.4s0.4,0.2,0.4,0.4v3.7
					C23.7,20.8,23.5,21,23.3,21z"/>
				<path class="st2" d="M24.8,21c-0.2,0-0.4-0.2-0.4-0.4v-3.7c0-0.2,0.2-0.4,0.4-0.4s0.4,0.2,0.4,0.4v3.7C25.1,20.8,25,21,24.8,21z
					"/>
				<path class="st2" d="M26.3,21c-0.2,0-0.4-0.2-0.4-0.4v-3.7c0-0.2,0.2-0.4,0.4-0.4s0.4,0.2,0.4,0.4v3.7
					C26.6,20.8,26.5,21,26.3,21z"/>
				<path class="st2" d="M27.7,21c-0.2,0-0.4-0.2-0.4-0.4v-3.7c0-0.2,0.2-0.4,0.4-0.4c0.2,0,0.4,0.2,0.4,0.4v3.7
					C28.1,20.8,28,21,27.7,21z"/>
				<path class="st2" d="M29.2,21c-0.2,0-0.4-0.2-0.4-0.4v-3.7c0-0.2,0.2-0.4,0.4-0.4c0.2,0,0.4,0.2,0.4,0.4v3.7
					C29.6,20.8,29.5,21,29.2,21z"/>
			</g>
		</g>
		<path class="st2" d="M34.4,35.2H13.6c-0.4,0-0.8-0.4-0.8-0.8V13.6c0-0.4,0.4-0.8,0.8-0.8h20.8c0.4,0,0.8,0.4,0.8,0.8v20.8
			C35.2,34.8,34.8,35.2,34.4,35.2z M34.4,34.4v0.4V34.4L34.4,34.4z M13.6,13.6v20.8h20.8V13.6H13.6z"/>
		<path class="st4" d="M33,14.4H12.9c-0.4,0-0.8,0.3-0.8,0.8v20.1c0,0.4,0.3,0.8,0.8,0.8H33c0.4,0,0.8-0.3,0.8-0.8V15.2
			C33.8,14.7,33.4,14.4,33,14.4z M18.4,29.4h-1.1v-2c0-0.2-0.2-0.4-0.4-0.4h-1.4v-8.3h14.9V27H29c-0.2,0-0.4,0.2-0.4,0.4v2h-1.1
			c-0.2,0-0.4,0.2-0.4,0.4v1.9h-8.4v-1.9C18.8,29.5,18.6,29.4,18.4,29.4z"/>
	</g>
</g>
</svg>
