<?xml version="1.0" encoding="utf-8"?>
<!-- Generator: Adobe Illustrator 23.0.2, SVG Export Plug-In . SVG Version: 6.00 Build 0)  -->
<svg version="1.1" id="Layer_1" xmlns="http://www.w3.org/2000/svg" xmlns:xlink="http://www.w3.org/1999/xlink" x="0px" y="0px"
	 viewBox="0 0 48 48" style="enable-background:new 0 0 48 48;" xml:space="preserve">
<style type="text/css">
	.st0{fill:none;}
	.st1{fill:#F2FAF9;}
	.st2{fill:#009B85;}
	.st3{fill:none;stroke:#009B85;stroke-width:2;stroke-linecap:round;stroke-linejoin:round;stroke-miterlimit:10;}
	.st4{opacity:0.2;fill:#009B85;}
	.st5{opacity:0.2;}
</style>
<rect x="-204" class="st0" width="48" height="48"/>
<g>
	<path class="st1" d="M-180,4.6c-10.7,0-19.4,8.7-19.4,19.4c0,10.7,8.7,19.4,19.4,19.4c10.7,0,19.4-8.7,19.4-19.4
		C-160.6,13.3-169.3,4.6-180,4.6"/>
	<g>
		<path class="st2" d="M-176.8,29.4h-6.5c-0.2,0-0.4-0.2-0.4-0.4v-1.2h-0.7c-0.2,0-0.4-0.2-0.4-0.4v-1.3h-0.8
			c-0.2,0-0.4-0.2-0.4-0.4v-6.4c0-0.2,0.2-0.4,0.4-0.4h11.1c0.2,0,0.4,0.2,0.4,0.4v6.4c0,0.2-0.2,0.4-0.4,0.4h-0.8v1.3
			c0,0.2-0.2,0.4-0.4,0.4h-0.7V29C-176.4,29.2-176.5,29.4-176.8,29.4z M-182.8,28.6h5.7v-1.2c0-0.2,0.2-0.4,0.4-0.4h0.7v-1.3
			c0-0.2,0.2-0.4,0.4-0.4h0.8v-5.6h-10.3v5.6h0.8c0.2,0,0.4,0.2,0.4,0.4V27h0.7c0.2,0,0.4,0.2,0.4,0.4V28.6z"/>
		<g>
			<path class="st2" d="M-183.6,22.3c-0.2,0-0.4-0.2-0.4-0.4v-2.5c0-0.2,0.2-0.4,0.4-0.4s0.4,0.2,0.4,0.4v2.5
				C-183.2,22.1-183.4,22.3-183.6,22.3z"/>
			<path class="st2" d="M-182.6,22.3c-0.2,0-0.4-0.2-0.4-0.4v-2.5c0-0.2,0.2-0.4,0.4-0.4s0.4,0.2,0.4,0.4v2.5
				C-182.2,22.1-182.3,22.3-182.6,22.3z"/>
			<path class="st2" d="M-181.5,22.3c-0.2,0-0.4-0.2-0.4-0.4v-2.5c0-0.2,0.2-0.4,0.4-0.4c0.2,0,0.4,0.2,0.4,0.4v2.5
				C-181.1,22.1-181.3,22.3-181.5,22.3z"/>
			<path class="st2" d="M-180.5,22.3c-0.2,0-0.4-0.2-0.4-0.4v-2.5c0-0.2,0.2-0.4,0.4-0.4s0.4,0.2,0.4,0.4v2.5
				C-180.1,22.1-180.3,22.3-180.5,22.3z"/>
			<path class="st2" d="M-179.5,22.3c-0.2,0-0.4-0.2-0.4-0.4v-2.5c0-0.2,0.2-0.4,0.4-0.4s0.4,0.2,0.4,0.4v2.5
				C-179.1,22.1-179.3,22.3-179.5,22.3z"/>
			<path class="st2" d="M-178.5,22.3c-0.2,0-0.4-0.2-0.4-0.4v-2.5c0-0.2,0.2-0.4,0.4-0.4c0.2,0,0.4,0.2,0.4,0.4v2.5
				C-178.1,22.1-178.2,22.3-178.5,22.3z"/>
			<path class="st2" d="M-177.4,22.3c-0.2,0-0.4-0.2-0.4-0.4v-2.5c0-0.2,0.2-0.4,0.4-0.4s0.4,0.2,0.4,0.4v2.5
				C-177,22.1-177.2,22.3-177.4,22.3z"/>
			<path class="st2" d="M-176.4,22.3c-0.2,0-0.4-0.2-0.4-0.4v-2.5c0-0.2,0.2-0.4,0.4-0.4s0.4,0.2,0.4,0.4v2.5
				C-176,22.1-176.2,22.3-176.4,22.3z"/>
		</g>
	</g>
	<path class="st3" d="M-180,16.8"/>
	<path class="st2" d="M-173,32h-14c-0.4,0-0.8-0.4-0.8-0.8v-14c0-0.4,0.4-0.8,0.8-0.8h14c0.4,0,0.8,0.4,0.8,0.8v14
		C-172.2,31.6-172.6,32-173,32z M-187,17.2v14h14l0-14H-187z"/>
	<path class="st4" d="M-173.9,17.6h-13.8c-0.3,0-0.5,0.2-0.5,0.5v13.8c0,0.3,0.2,0.5,0.5,0.5h13.8c0.3,0,0.5-0.2,0.5-0.5V18.1
		C-173.4,17.8-173.6,17.6-173.9,17.6z M-183.9,27.9h-0.8v-1.3c0-0.1-0.1-0.3-0.3-0.3h-0.9v-5.7h10.2v5.7h-0.9
		c-0.1,0-0.3,0.1-0.3,0.3v1.3h-0.8c-0.1,0-0.3,0.1-0.3,0.3v1.3h-5.7v-1.3C-183.7,28-183.8,27.9-183.9,27.9z"/>
	<g>
		<path class="st2" d="M-174.3,12.1h-11.4c-0.2,0-0.4-0.2-0.4-0.4c0-0.2,0.2-0.4,0.4-0.4h10.2l-2.6-1.9c-0.2-0.1-0.2-0.4-0.1-0.5
			c0.1-0.2,0.4-0.2,0.5-0.1l3.6,2.6c0.1,0.1,0.2,0.3,0.1,0.4C-174,12-174.1,12.1-174.3,12.1z"/>
		<path class="st2" d="M-177.9,14.7c-0.1,0-0.2-0.1-0.3-0.2c-0.1-0.2-0.1-0.4,0.1-0.5l3.6-2.6c0.2-0.1,0.4-0.1,0.5,0.1
			c0.1,0.2,0.1,0.4-0.1,0.5l-3.6,2.6C-177.8,14.7-177.8,14.7-177.9,14.7z"/>
	</g>
	<g>
		<path class="st2" d="M-182.1,39.7c-0.1,0-0.2,0-0.2-0.1l-3.6-2.6c-0.1-0.1-0.2-0.3-0.1-0.4c0.1-0.2,0.2-0.3,0.4-0.3h11.4
			c0.2,0,0.4,0.2,0.4,0.4c0,0.2-0.2,0.4-0.4,0.4h-10.2l2.6,1.9c0.2,0.1,0.2,0.4,0.1,0.5C-181.8,39.6-182,39.7-182.1,39.7z"/>
		<path class="st2" d="M-185.7,37.1c-0.1,0-0.2-0.1-0.3-0.2c-0.1-0.2-0.1-0.4,0.1-0.5l3.6-2.6c0.2-0.1,0.4-0.1,0.5,0.1
			c0.1,0.2,0.1,0.4-0.1,0.5l-3.6,2.6C-185.5,37-185.6,37.1-185.7,37.1z"/>
	</g>
</g>
<rect x="-136" class="st0" width="48" height="48"/>
<path class="st1" d="M-112,4.6c-10.7,0-19.4,8.7-19.4,19.4c0,10.7,8.7,19.4,19.4,19.4c10.7,0,19.4-8.7,19.4-19.4
	C-92.6,13.3-101.3,4.6-112,4.6"/>
<g>
	<path class="st2" d="M-108.8,29.4h-6.5c-0.2,0-0.4-0.2-0.4-0.4v-1.2h-0.7c-0.2,0-0.4-0.2-0.4-0.4v-1.3h-0.8c-0.2,0-0.4-0.2-0.4-0.4
		v-6.4c0-0.2,0.2-0.4,0.4-0.4h11.1c0.2,0,0.4,0.2,0.4,0.4v6.4c0,0.2-0.2,0.4-0.4,0.4h-0.8v1.3c0,0.2-0.2,0.4-0.4,0.4h-0.7V29
		C-108.4,29.2-108.5,29.4-108.8,29.4z M-114.8,28.6h5.7v-1.2c0-0.2,0.2-0.4,0.4-0.4h0.7v-1.3c0-0.2,0.2-0.4,0.4-0.4h0.8v-5.6h-10.3
		v5.6h0.8c0.2,0,0.4,0.2,0.4,0.4V27h0.7c0.2,0,0.4,0.2,0.4,0.4V28.6z"/>
	<g>
		<path class="st2" d="M-115.6,22.3c-0.2,0-0.4-0.2-0.4-0.4v-2.5c0-0.2,0.2-0.4,0.4-0.4c0.2,0,0.4,0.2,0.4,0.4v2.5
			C-115.2,22.1-115.4,22.3-115.6,22.3z"/>
		<path class="st2" d="M-114.6,22.3c-0.2,0-0.4-0.2-0.4-0.4v-2.5c0-0.2,0.2-0.4,0.4-0.4c0.2,0,0.4,0.2,0.4,0.4v2.5
			C-114.2,22.1-114.3,22.3-114.6,22.3z"/>
		<path class="st2" d="M-113.5,22.3c-0.2,0-0.4-0.2-0.4-0.4v-2.5c0-0.2,0.2-0.4,0.4-0.4s0.4,0.2,0.4,0.4v2.5
			C-113.1,22.1-113.3,22.3-113.5,22.3z"/>
		<path class="st2" d="M-112.5,22.3c-0.2,0-0.4-0.2-0.4-0.4v-2.5c0-0.2,0.2-0.4,0.4-0.4s0.4,0.2,0.4,0.4v2.5
			C-112.1,22.1-112.3,22.3-112.5,22.3z"/>
		<path class="st2" d="M-111.5,22.3c-0.2,0-0.4-0.2-0.4-0.4v-2.5c0-0.2,0.2-0.4,0.4-0.4c0.2,0,0.4,0.2,0.4,0.4v2.5
			C-111.1,22.1-111.3,22.3-111.5,22.3z"/>
		<path class="st2" d="M-110.5,22.3c-0.2,0-0.4-0.2-0.4-0.4v-2.5c0-0.2,0.2-0.4,0.4-0.4s0.4,0.2,0.4,0.4v2.5
			C-110.1,22.1-110.2,22.3-110.5,22.3z"/>
		<path class="st2" d="M-109.4,22.3c-0.2,0-0.4-0.2-0.4-0.4v-2.5c0-0.2,0.2-0.4,0.4-0.4c0.2,0,0.4,0.2,0.4,0.4v2.5
			C-109,22.1-109.2,22.3-109.4,22.3z"/>
		<path class="st2" d="M-108.4,22.3c-0.2,0-0.4-0.2-0.4-0.4v-2.5c0-0.2,0.2-0.4,0.4-0.4c0.2,0,0.4,0.2,0.4,0.4v2.5
			C-108,22.1-108.2,22.3-108.4,22.3z"/>
	</g>
</g>
<path class="st3" d="M-112,16.8"/>
<path class="st2" d="M-105,32h-14c-0.4,0-0.8-0.4-0.8-0.8v-14c0-0.4,0.4-0.8,0.8-0.8h14c0.4,0,0.8,0.4,0.8,0.8v14
	C-104.2,31.6-104.6,32-105,32z M-119,17.2v14h14l0-14H-119z"/>
<path class="st4" d="M-105.9,17.6h-13.8c-0.3,0-0.5,0.2-0.5,0.5v13.8c0,0.3,0.2,0.5,0.5,0.5h13.8c0.3,0,0.5-0.2,0.5-0.5V18.1
	C-105.4,17.8-105.6,17.6-105.9,17.6z M-115.9,27.9h-0.8v-1.3c0-0.1-0.1-0.3-0.3-0.3h-0.9v-5.7h10.2v5.7h-0.9c-0.1,0-0.3,0.1-0.3,0.3
	v1.3h-0.8c-0.1,0-0.3,0.1-0.3,0.3v1.3h-5.7v-1.3C-115.7,28-115.8,27.9-115.9,27.9z"/>
<g class="st5">
	<path class="st2" d="M-106.3,12.1h-11.4c-0.2,0-0.4-0.2-0.4-0.4c0-0.2,0.2-0.4,0.4-0.4h10.2l-2.6-1.9c-0.2-0.1-0.2-0.4-0.1-0.5
		c0.1-0.2,0.4-0.2,0.5-0.1l3.6,2.6c0.1,0.1,0.2,0.3,0.1,0.4S-106.1,12.1-106.3,12.1z"/>
	<path class="st2" d="M-109.9,14.7c-0.1,0-0.2-0.1-0.3-0.2c-0.1-0.2-0.1-0.4,0.1-0.5l3.6-2.6c0.2-0.1,0.4-0.1,0.5,0.1
		c0.1,0.2,0.1,0.4-0.1,0.5l-3.6,2.6C-109.8,14.7-109.8,14.7-109.9,14.7z"/>
</g>
<g>
	<path class="st2" d="M-114.1,39.7c-0.1,0-0.2,0-0.2-0.1l-3.6-2.6c-0.1-0.1-0.2-0.3-0.1-0.4c0.1-0.2,0.2-0.3,0.4-0.3h11.4
		c0.2,0,0.4,0.2,0.4,0.4c0,0.2-0.2,0.4-0.4,0.4h-10.2l2.6,1.9c0.2,0.1,0.2,0.4,0.1,0.5C-113.8,39.6-114,39.7-114.1,39.7z"/>
	<path class="st2" d="M-117.7,37.1c-0.1,0-0.2-0.1-0.3-0.2c-0.1-0.2-0.1-0.4,0.1-0.5l3.6-2.6c0.2-0.1,0.4-0.1,0.5,0.1
		c0.1,0.2,0.1,0.4-0.1,0.5l-3.6,2.6C-117.5,37-117.6,37.1-117.7,37.1z"/>
</g>
<rect x="-68" class="st0" width="48" height="48"/>
<path class="st1" d="M-44,4.6c-10.7,0-19.4,8.7-19.4,19.4c0,10.7,8.7,19.4,19.4,19.4c10.7,0,19.4-8.7,19.4-19.4
	C-24.6,13.3-33.3,4.6-44,4.6"/>
<g>
	<path class="st2" d="M-40.8,29.4h-6.5c-0.2,0-0.4-0.2-0.4-0.4v-1.2h-0.7c-0.2,0-0.4-0.2-0.4-0.4v-1.3h-0.8c-0.2,0-0.4-0.2-0.4-0.4
		v-6.4c0-0.2,0.2-0.4,0.4-0.4h11.1c0.2,0,0.4,0.2,0.4,0.4v6.4c0,0.2-0.2,0.4-0.4,0.4h-0.8v1.3c0,0.2-0.2,0.4-0.4,0.4h-0.7V29
		C-40.4,29.2-40.5,29.4-40.8,29.4z M-46.8,28.6h5.7v-1.2c0-0.2,0.2-0.4,0.4-0.4h0.7v-1.3c0-0.2,0.2-0.4,0.4-0.4h0.8v-5.6h-10.3v5.6
		h0.8c0.2,0,0.4,0.2,0.4,0.4V27h0.7c0.2,0,0.4,0.2,0.4,0.4V28.6z"/>
	<g>
		<path class="st2" d="M-47.6,22.3c-0.2,0-0.4-0.2-0.4-0.4v-2.5c0-0.2,0.2-0.4,0.4-0.4c0.2,0,0.4,0.2,0.4,0.4v2.5
			C-47.2,22.1-47.4,22.3-47.6,22.3z"/>
		<path class="st2" d="M-46.6,22.3c-0.2,0-0.4-0.2-0.4-0.4v-2.5c0-0.2,0.2-0.4,0.4-0.4c0.2,0,0.4,0.2,0.4,0.4v2.5
			C-46.2,22.1-46.3,22.3-46.6,22.3z"/>
		<path class="st2" d="M-45.5,22.3c-0.2,0-0.4-0.2-0.4-0.4v-2.5c0-0.2,0.2-0.4,0.4-0.4c0.2,0,0.4,0.2,0.4,0.4v2.5
			C-45.1,22.1-45.3,22.3-45.5,22.3z"/>
		<path class="st2" d="M-44.5,22.3c-0.2,0-0.4-0.2-0.4-0.4v-2.5c0-0.2,0.2-0.4,0.4-0.4c0.2,0,0.4,0.2,0.4,0.4v2.5
			C-44.1,22.1-44.3,22.3-44.5,22.3z"/>
		<path class="st2" d="M-43.5,22.3c-0.2,0-0.4-0.2-0.4-0.4v-2.5c0-0.2,0.2-0.4,0.4-0.4c0.2,0,0.4,0.2,0.4,0.4v2.5
			C-43.1,22.1-43.3,22.3-43.5,22.3z"/>
		<path class="st2" d="M-42.5,22.3c-0.2,0-0.4-0.2-0.4-0.4v-2.5c0-0.2,0.2-0.4,0.4-0.4c0.2,0,0.4,0.2,0.4,0.4v2.5
			C-42.1,22.1-42.2,22.3-42.5,22.3z"/>
		<path class="st2" d="M-41.4,22.3c-0.2,0-0.4-0.2-0.4-0.4v-2.5c0-0.2,0.2-0.4,0.4-0.4c0.2,0,0.4,0.2,0.4,0.4v2.5
			C-41,22.1-41.2,22.3-41.4,22.3z"/>
		<path class="st2" d="M-40.4,22.3c-0.2,0-0.4-0.2-0.4-0.4v-2.5c0-0.2,0.2-0.4,0.4-0.4s0.4,0.2,0.4,0.4v2.5
			C-40,22.1-40.2,22.3-40.4,22.3z"/>
	</g>
</g>
<path class="st3" d="M-44,16.8"/>
<path class="st2" d="M-37,32h-14c-0.4,0-0.8-0.4-0.8-0.8v-14c0-0.4,0.4-0.8,0.8-0.8h14c0.4,0,0.8,0.4,0.8,0.8v14
	C-36.2,31.6-36.6,32-37,32z M-51,17.2v14h14l0-14H-51z"/>
<path class="st4" d="M-37.9,17.6h-13.8c-0.3,0-0.5,0.2-0.5,0.5v13.8c0,0.3,0.2,0.5,0.5,0.5h13.8c0.3,0,0.5-0.2,0.5-0.5V18.1
	C-37.4,17.8-37.6,17.6-37.9,17.6z M-47.9,27.9h-0.8v-1.3c0-0.1-0.1-0.3-0.3-0.3h-0.9v-5.7h10.2v5.7h-0.9c-0.1,0-0.3,0.1-0.3,0.3v1.3
	h-0.8c-0.1,0-0.3,0.1-0.3,0.3v1.3h-5.7v-1.3C-47.7,28-47.8,27.9-47.9,27.9z"/>
<g>
	<path class="st2" d="M-38.3,12.1h-11.4c-0.2,0-0.4-0.2-0.4-0.4c0-0.2,0.2-0.4,0.4-0.4h10.2l-2.6-1.9c-0.2-0.1-0.2-0.4-0.1-0.5
		c0.1-0.2,0.4-0.2,0.5-0.1l3.6,2.6c0.1,0.1,0.2,0.3,0.1,0.4S-38.1,12.1-38.3,12.1z"/>
	<path class="st2" d="M-41.9,14.7c-0.1,0-0.2-0.1-0.3-0.2c-0.1-0.2-0.1-0.4,0.1-0.5l3.6-2.6c0.2-0.1,0.4-0.1,0.5,0.1
		c0.1,0.2,0.1,0.4-0.1,0.5l-3.6,2.6C-41.8,14.7-41.8,14.7-41.9,14.7z"/>
</g>
<g class="st5">
	<path class="st2" d="M-46.1,39.7c-0.1,0-0.2,0-0.2-0.1l-3.6-2.6c-0.1-0.1-0.2-0.3-0.1-0.4c0.1-0.2,0.2-0.3,0.4-0.3h11.4
		c0.2,0,0.4,0.2,0.4,0.4c0,0.2-0.2,0.4-0.4,0.4h-10.2l2.6,1.9c0.2,0.1,0.2,0.4,0.1,0.5C-45.8,39.6-46,39.7-46.1,39.7z"/>
	<path class="st2" d="M-49.7,37.1c-0.1,0-0.2-0.1-0.3-0.2c-0.1-0.2-0.1-0.4,0.1-0.5l3.6-2.6c0.2-0.1,0.4-0.1,0.5,0.1
		c0.1,0.2,0.1,0.4-0.1,0.5l-3.6,2.6C-49.5,37-49.6,37.1-49.7,37.1z"/>
</g>
<rect class="st0" width="48" height="48"/>
<path class="st1" d="M24,4.6C13.3,4.6,4.6,13.3,4.6,24c0,10.7,8.7,19.4,19.4,19.4c10.7,0,19.4-8.7,19.4-19.4
	C43.4,13.3,34.7,4.6,24,4.6"/>
<g>
	<path class="st2" d="M27.2,29.4h-6.5c-0.2,0-0.4-0.2-0.4-0.4v-1.2h-0.7c-0.2,0-0.4-0.2-0.4-0.4v-1.3h-0.8c-0.2,0-0.4-0.2-0.4-0.4
		v-6.4c0-0.2,0.2-0.4,0.4-0.4h11.1c0.2,0,0.4,0.2,0.4,0.4v6.4c0,0.2-0.2,0.4-0.4,0.4h-0.8v1.3c0,0.2-0.2,0.4-0.4,0.4h-0.7V29
		C27.6,29.2,27.5,29.4,27.2,29.4z M21.2,28.6h5.7v-1.2c0-0.2,0.2-0.4,0.4-0.4h0.7v-1.3c0-0.2,0.2-0.4,0.4-0.4h0.8v-5.6H18.8v5.6h0.8
		c0.2,0,0.4,0.2,0.4,0.4V27h0.7c0.2,0,0.4,0.2,0.4,0.4V28.6z"/>
	<g>
		<path class="st2" d="M20.4,22.3c-0.2,0-0.4-0.2-0.4-0.4v-2.5c0-0.2,0.2-0.4,0.4-0.4c0.2,0,0.4,0.2,0.4,0.4v2.5
			C20.8,22.1,20.6,22.3,20.4,22.3z"/>
		<path class="st2" d="M21.4,22.3c-0.2,0-0.4-0.2-0.4-0.4v-2.5c0-0.2,0.2-0.4,0.4-0.4c0.2,0,0.4,0.2,0.4,0.4v2.5
			C21.8,22.1,21.7,22.3,21.4,22.3z"/>
		<path class="st2" d="M22.5,22.3c-0.2,0-0.4-0.2-0.4-0.4v-2.5c0-0.2,0.2-0.4,0.4-0.4c0.2,0,0.4,0.2,0.4,0.4v2.5
			C22.9,22.1,22.7,22.3,22.5,22.3z"/>
		<path class="st2" d="M23.5,22.3c-0.2,0-0.4-0.2-0.4-0.4v-2.5c0-0.2,0.2-0.4,0.4-0.4c0.2,0,0.4,0.2,0.4,0.4v2.5
			C23.9,22.1,23.7,22.3,23.5,22.3z"/>
		<path class="st2" d="M24.5,22.3c-0.2,0-0.4-0.2-0.4-0.4v-2.5c0-0.2,0.2-0.4,0.4-0.4c0.2,0,0.4,0.2,0.4,0.4v2.5
			C24.9,22.1,24.7,22.3,24.5,22.3z"/>
		<path class="st2" d="M25.5,22.3c-0.2,0-0.4-0.2-0.4-0.4v-2.5c0-0.2,0.2-0.4,0.4-0.4c0.2,0,0.4,0.2,0.4,0.4v2.5
			C25.9,22.1,25.8,22.3,25.5,22.3z"/>
		<path class="st2" d="M26.6,22.3c-0.2,0-0.4-0.2-0.4-0.4v-2.5c0-0.2,0.2-0.4,0.4-0.4c0.2,0,0.4,0.2,0.4,0.4v2.5
			C27,22.1,26.8,22.3,26.6,22.3z"/>
		<path class="st2" d="M27.6,22.3c-0.2,0-0.4-0.2-0.4-0.4v-2.5c0-0.2,0.2-0.4,0.4-0.4c0.2,0,0.4,0.2,0.4,0.4v2.5
			C28,22.1,27.8,22.3,27.6,22.3z"/>
	</g>
</g>
<path class="st3" d="M24,16.8"/>
<path class="st2" d="M31,32H17c-0.4,0-0.8-0.4-0.8-0.8v-14c0-0.4,0.4-0.8,0.8-0.8h14c0.4,0,0.8,0.4,0.8,0.8v14
	C31.8,31.6,31.4,32,31,32z M17,17.2v14h14l0-14H17z"/>
<path class="st4" d="M30.1,17.6H16.3c-0.3,0-0.5,0.2-0.5,0.5v13.8c0,0.3,0.2,0.5,0.5,0.5h13.8c0.3,0,0.5-0.2,0.5-0.5V18.1
	C30.6,17.8,30.4,17.6,30.1,17.6z M20.1,27.9h-0.8v-1.3c0-0.1-0.1-0.3-0.3-0.3h-0.9v-5.7h10.2v5.7h-0.9c-0.1,0-0.3,0.1-0.3,0.3v1.3
	h-0.8c-0.1,0-0.3,0.1-0.3,0.3v1.3h-5.7v-1.3C20.3,28,20.2,27.9,20.1,27.9z"/>
<g class="st5">
	<path class="st2" d="M29.7,12.1H18.3c-0.2,0-0.4-0.2-0.4-0.4c0-0.2,0.2-0.4,0.4-0.4h10.2l-2.6-1.9c-0.2-0.1-0.2-0.4-0.1-0.5
		c0.1-0.2,0.4-0.2,0.5-0.1l3.6,2.6c0.1,0.1,0.2,0.3,0.1,0.4S29.9,12.1,29.7,12.1z"/>
	<path class="st2" d="M26.1,14.7c-0.1,0-0.2-0.1-0.3-0.2c-0.1-0.2-0.1-0.4,0.1-0.5l3.6-2.6c0.2-0.1,0.4-0.1,0.5,0.1
		c0.1,0.2,0.1,0.4-0.1,0.5l-3.6,2.6C26.2,14.7,26.2,14.7,26.1,14.7z"/>
</g>
<g class="st5">
	<path class="st2" d="M21.9,39.7c-0.1,0-0.2,0-0.2-0.1L18.1,37c-0.1-0.1-0.2-0.3-0.1-0.4c0.1-0.2,0.2-0.3,0.4-0.3h11.4
		c0.2,0,0.4,0.2,0.4,0.4c0,0.2-0.2,0.4-0.4,0.4H19.5l2.6,1.9c0.2,0.1,0.2,0.4,0.1,0.5C22.2,39.6,22,39.7,21.9,39.7z"/>
	<path class="st2" d="M18.3,37.1c-0.1,0-0.2-0.1-0.3-0.2c-0.1-0.2-0.1-0.4,0.1-0.5l3.6-2.6c0.2-0.1,0.4-0.1,0.5,0.1
		c0.1,0.2,0.1,0.4-0.1,0.5L18.5,37C18.5,37,18.4,37.1,18.3,37.1z"/>
</g>
</svg>
