<?xml version="1.0" encoding="utf-8"?>
<!-- Generator: Adobe Illustrator 23.0.1, SVG Export Plug-In . SVG Version: 6.00 Build 0)  -->
<svg version="1.1" id="Layer_1" xmlns="http://www.w3.org/2000/svg" xmlns:xlink="http://www.w3.org/1999/xlink" x="0px" y="0px"
	 viewBox="0 0 48.02 48.02" style="enable-background:new 0 0 48.02 48.02;" xml:space="preserve">
<style type="text/css">
	.st0{fill:none;}
	.st1{fill:#FFFFFF;}
	.st2{opacity:0.05;fill:#039781;}
	.st3{opacity:0.4;fill:#039781;}
	.st4{fill:#DE6056;}
</style>
<rect class="st0" width="48.02" height="48.02"/>
<g>
	<circle class="st1" cx="24.01" cy="24.01" r="19.4"/>
	<circle class="st2" cx="24.01" cy="24.01" r="19.4"/>
	<circle class="st3" cx="24.01" cy="31.41" r="3.21"/>
	<path class="st3" d="M30.1,26.98c-0.29,0-0.57-0.11-0.79-0.33c-1.42-1.42-3.3-2.2-5.3-2.2s-3.88,0.78-5.3,2.2
		c-0.44,0.44-1.15,0.44-1.59,0s-0.44-1.15,0-1.59c1.84-1.84,4.29-2.85,6.89-2.85s5.05,1.01,6.89,2.85c0.44,0.44,0.44,1.15,0,1.59
		C30.68,26.87,30.39,26.98,30.1,26.98z"/>
	<path class="st3" d="M14.9,23.28c-0.29,0-0.57-0.11-0.79-0.33c-0.44-0.44-0.44-1.15,0-1.59c2.64-2.65,6.16-4.1,9.91-4.1
		s7.26,1.46,9.91,4.1c0.44,0.44,0.44,1.15,0,1.59c-0.44,0.44-1.15,0.44-1.59,0c-2.22-2.22-5.18-3.45-8.32-3.45s-6.1,1.22-8.32,3.45
		C15.47,23.17,15.18,23.28,14.9,23.28z"/>
	<path class="st3" d="M36.65,19.75c-0.29,0-0.57-0.11-0.79-0.33c-3.17-3.17-7.37-4.91-11.85-4.91s-8.68,1.74-11.85,4.91
		c-0.44,0.44-1.15,0.44-1.59,0s-0.44-1.15,0-1.59c3.59-3.59,8.36-5.57,13.44-5.57s9.85,1.98,13.44,5.57c0.44,0.44,0.44,1.15,0,1.59
		C37.23,19.64,36.94,19.75,36.65,19.75z"/>
	<g>
		<path class="st4" d="M21.14,35.4c-0.29,0-0.57-0.11-0.79-0.33c-0.44-0.44-0.44-1.15,0-1.59l5.73-5.73c0.44-0.44,1.15-0.44,1.59,0
			s0.44,1.15,0,1.59l-5.73,5.73C21.72,35.29,21.43,35.4,21.14,35.4z"/>
		<path class="st4" d="M26.87,35.4c-0.29,0-0.57-0.11-0.79-0.33l-5.73-5.73c-0.44-0.44-0.44-1.15,0-1.59s1.15-0.44,1.59,0l5.73,5.73
			c0.44,0.44,0.44,1.15,0,1.59C27.44,35.29,27.16,35.4,26.87,35.4z"/>
	</g>
</g>
</svg>
