<?xml version="1.0" encoding="utf-8"?>
<!-- Generator: Adobe Illustrator 23.0.2, SVG Export Plug-In . SVG Version: 6.00 Build 0)  -->
<svg version="1.1" id="Layer_1" xmlns="http://www.w3.org/2000/svg" xmlns:xlink="http://www.w3.org/1999/xlink" x="0px" y="0px"
	 viewBox="0 0 48 48" style="enable-background:new 0 0 48 48;" xml:space="preserve">
<style type="text/css">
	.st0{opacity:0.1;fill:#F2FAF9;}
	.st1{opacity:0.2;}
	.st2{fill:#009B85;}
	.st3{fill:none;}
	.st4{fill:#FFFFFF;}
</style>
<path class="st0" d="M24,4.6C13.3,4.6,4.6,13.3,4.6,24c0,10.7,8.7,19.4,19.4,19.4c10.7,0,19.4-8.7,19.4-19.4
	C43.4,13.3,34.7,4.6,24,4.6"/>
<g class="st1">
	<path class="st2" d="M22,23.4l0-9.8l5.2,4.7c0.1,0.1,0.1,0.1,0.1,0.2c0,0.1,0,0.2-0.1,0.2L22,23.4z"/>
	<path class="st2" d="M22,23.6C21.9,23.6,21.9,23.6,22,23.6c-0.2,0-0.2-0.1-0.2-0.2l0-9.8c0-0.1,0-0.1,0.1-0.2c0.1,0,0.2,0,0.2,0
		l5.2,4.7c0.1,0.1,0.2,0.2,0.2,0.4c0,0.1-0.1,0.3-0.2,0.4l-5.2,4.6C22,23.6,22,23.6,22,23.6z M22.1,14.1l0,8.9l4.8-4.4
		c0,0,0-0.1,0-0.1c0,0,0-0.1,0-0.1L22.1,14.1z"/>
</g>
<g class="st1">
	<path class="st2" d="M22,34.8l0-9.8l5.2,4.7c0.1,0.1,0.1,0.1,0.1,0.2c0,0.1,0,0.2-0.1,0.2L22,34.8z"/>
	<path class="st2" d="M22,35C21.9,35,21.9,35,22,35c-0.2,0-0.2-0.1-0.2-0.2l0-9.8c0-0.1,0-0.1,0.1-0.2c0.1,0,0.2,0,0.2,0l5.2,4.7
		c0.1,0.1,0.2,0.2,0.2,0.4c0,0.1-0.1,0.3-0.2,0.4l-5.2,4.6C22,34.9,22,35,22,35z M22.1,25.4l0,8.9L27,30c0,0,0-0.1,0-0.1
		c0,0,0-0.1,0-0.1L22.1,25.4z"/>
</g>
<rect class="st3" width="48" height="48"/>
<path class="st4" d="M23,35.5c-0.1,0-0.2,0-0.2-0.1c-0.1-0.1-0.4-0.2-0.4-0.8l0.1-10.6l-3.8-3.4c-0.2-0.1-0.2-0.4,0-0.6
	c0.1-0.2,0.4-0.2,0.6,0l3.9,3.6c0,0,0,0,0,0l5.8,5.2c0.2,0.2,0.4,0.5,0.4,0.8c0,0.3-0.1,0.6-0.4,0.8l-5.3,4.8
	C23.3,35.4,23.1,35.5,23,35.5z M23.2,24.8l0,9.8l5.2-4.7c0.1-0.1,0.1-0.1,0.1-0.2c0-0.1,0-0.2-0.1-0.2L23.2,24.8z"/>
<path class="st4" d="M18.8,28.1c-0.1,0-0.2,0-0.3-0.1c-0.1-0.2-0.1-0.4,0-0.6l3.8-3.4l-0.1-10.6c0-0.5,0.3-0.7,0.4-0.8
	c0.1-0.1,0.4-0.1,0.8,0.2l5.3,4.8c0.2,0.2,0.4,0.5,0.4,0.8c0,0.3-0.1,0.6-0.4,0.8L23,24.4c0,0,0,0,0,0L19.1,28
	C19,28,18.9,28.1,18.8,28.1z M23.1,13.4l0,9.8l5.2-4.6c0.1-0.1,0.1-0.1,0.1-0.2c0-0.1,0-0.2-0.1-0.2L23.1,13.4z"/>
</svg>
