<?xml version="1.0" encoding="utf-8"?>
<!-- Generator: Adobe Illustrator 23.0.1, SVG Export Plug-In . SVG Version: 6.00 Build 0)  -->
<svg version="1.1" id="Layer_1" xmlns="http://www.w3.org/2000/svg" xmlns:xlink="http://www.w3.org/1999/xlink" x="0px" y="0px"
	 viewBox="0 0 48 48" style="enable-background:new 0 0 48 48;" xml:space="preserve">
<style type="text/css">
	.st0{fill:#E8F4F2;}
	.st1{fill:#FFFFFF;}
	.st2{opacity:0.2;fill:#229883;}
	.st3{fill:#229883;}
	.st4{fill:none;}
</style>
<g>
	<path class="st0" d="M39.38,15.21l-0.05,0.31L34.75,45.7c-0.08,0.57-0.37,1.07-0.79,1.46C33.4,47.67,32.61,48,31.75,48H12.4
		c-0.86,0-1.65-0.32-2.21-0.84c-0.42-0.39-0.71-0.89-0.79-1.46L4.84,15.65l-0.07-0.44c-0.04-0.24,0.04-0.51,0.2-0.7
		c0.16-0.19,0.4-0.3,0.65-0.3h32.89c0.26,0,0.5,0.11,0.66,0.3C39.34,14.71,39.41,14.97,39.38,15.21z"/>
	<polygon class="st1" points="41.25,14.44 40.94,14.93 41.05,14.22 	"/>
	<polygon class="st2" points="41.25,14.44 40.94,14.93 41.05,14.22 	"/>
	<polygon class="st3" points="18.49,2.21 12.4,10.15 11.81,11.97 34.74,11.97 34.96,11.05 	"/>
	<g>
		<path class="st3" d="M40.57,11.3L28.82,0.38c-0.54-0.51-1.46-0.5-2-0.01l-3.59,3.34l-0.71,0.66l-0.71,0.66l1.71,0.92l0.71-0.66
			l0.71-0.66l2.88-2.68l11.5,10.69c0.37,0.34,0.95,0.32,1.29-0.05C40.96,12.23,40.94,11.64,40.57,11.3z M15.07,11.3
			c-0.2,0.18-0.29,0.43-0.29,0.67c0,0.23,0.08,0.45,0.24,0.63c0.18,0.2,0.43,0.29,0.67,0.29c0.22,0,0.45-0.08,0.63-0.24l0.72-0.67
			l0.99-0.92h-2.7L15.07,11.3z"/>
	</g>
	<g>
		<path class="st3" d="M34.96,11.05l-3.8-2.04L24.23,5.3l-0.86-0.46l-0.85-0.46l-4.04-2.17c-0.26-0.14-0.58-0.05-0.72,0.18
			l-4.11,6.63l-1.27,2.04l-0.57,0.92h24.87L34.96,11.05z M13.46,11.05l4.89-7.88l3.46,1.86l1.71,0.92l9.5,5.1H13.46z"/>
		<path class="st3" d="M37.49,12.41c-0.17,0.3-0.48,0.48-0.81,0.48c-0.15,0-0.29-0.04-0.44-0.11l-1.51-0.81l-1.71-0.92l-9.5-5.1
			l-1.71-0.92l-3.46-1.86l-4.89,7.88l-0.57,0.92l-0.3,0.48c-0.27,0.43-0.83,0.56-1.26,0.29s-0.57-0.83-0.29-1.26l0.27-0.44
			l5.68-9.15c0.4-0.65,1.25-0.86,1.93-0.51l4.32,2.32l1.71,0.92l11.96,6.42l0.2,0.11C37.56,11.4,37.73,11.96,37.49,12.41z"/>
	</g>
	<polygon class="st1" points="6.26,14.44 5.95,14.93 6.05,14.22 	"/>
	<polygon class="st2" points="6.26,14.44 5.95,14.93 6.05,14.22 	"/>
	<path class="st3" d="M43.01,11.37c-0.17-0.2-0.43-0.32-0.7-0.32H7.64c-0.27,0-0.52,0.12-0.69,0.32c-0.17,0.2-0.26,0.47-0.21,0.73
		l4.88,32.15c0.21,1.38,1.57,2.43,3.16,2.43h20.41c1.59,0,2.95-1.04,3.16-2.43l4.88-32.15C43.27,11.85,43.19,11.57,43.01,11.37z
		 M41.05,14.22l-0.11,0.7l-4.41,29.06c-0.07,0.48-0.66,0.86-1.34,0.86H14.78c-0.68,0-1.27-0.38-1.35-0.87L8.71,12.89h32.54
		L41.05,14.22z"/>
</g>
<rect class="st4" width="48" height="48"/>
</svg>
