<?xml version="1.0" encoding="utf-8"?>
<!-- Generator: Adobe Illustrator 23.0.1, SVG Export Plug-In . SVG Version: 6.00 Build 0)  -->
<svg version="1.1" id="Layer_1" xmlns="http://www.w3.org/2000/svg" xmlns:xlink="http://www.w3.org/1999/xlink" x="0px" y="0px"
	 viewBox="0 0 48 48" style="enable-background:new 0 0 48 48;" xml:space="preserve">
<style type="text/css">
	.st0{fill:#E8F4F2;}
	.st1{fill:#FFFFFF;}
	.st2{opacity:0.2;fill:#229883;}
	.st3{fill:#229883;}
	.st4{fill:none;}
</style>
<path class="st0" d="M43.19,6.14l-0.06,0.39l-5.71,37.65c-0.1,0.71-0.46,1.33-0.98,1.82c-0.7,0.64-1.68,1.05-2.76,1.05H9.53
	c-1.08,0-2.06-0.4-2.76-1.05c-0.52-0.49-0.88-1.11-0.98-1.82L0.1,6.69L0.01,6.14c-0.05-0.31,0.05-0.63,0.25-0.87
	c0.2-0.24,0.5-0.38,0.81-0.38h41.03c0.32,0,0.62,0.14,0.83,0.38C43.14,5.51,43.23,5.84,43.19,6.14z"/>
<polygon class="st1" points="45.52,5.17 45.14,5.78 45.27,4.91 "/>
<polygon class="st2" points="45.52,5.17 45.14,5.78 45.27,4.91 "/>
<path class="st3" d="M47.72,1.35c-0.22-0.25-0.54-0.4-0.87-0.4H3.59c-0.33,0-0.64,0.15-0.86,0.4C2.51,1.6,2.41,1.94,2.47,2.27
	l6.09,40.11c0.26,1.72,1.95,3.03,3.94,3.03h25.46c1.98,0,3.68-1.3,3.94-3.03l6.09-40.11C48.04,1.94,47.94,1.6,47.72,1.35z
	 M45.27,4.91l-0.14,0.88l-5.5,36.25c-0.09,0.6-0.83,1.07-1.68,1.07H12.5c-0.85,0-1.59-0.47-1.68-1.08L4.93,3.25h40.6L45.27,4.91z"/>
<rect x="0" class="st4" width="48" height="48"/>
</svg>
